<?xml version="1.0" encoding="UTF-8" standalone="no"?>
<!DOCTYPE svg PUBLIC "-//W3C//DTD SVG 1.1//EN" "http://www.w3.org/Graphics/SVG/1.1/DTD/svg11.dtd">
<svg width="100%" height="100%" viewBox="0 0 100 100" version="1.1" xmlns="http://www.w3.org/2000/svg" xmlns:xlink="http://www.w3.org/1999/xlink" xml:space="preserve" xmlns:serif="http://www.serif.com/" style="fill-rule:evenodd;clip-rule:evenodd;stroke-linejoin:round;stroke-miterlimit:2;">
    <rect id="Artboard1" x="0" y="0" width="100" height="100" style="fill:none;"/>
    <clipPath id="_clip1">
        <rect id="Artboard11" serif:id="Artboard1" x="0" y="0" width="100" height="100"/>
    </clipPath>
    <g clip-path="url(#_clip1)">
        <rect x="0" y="0" width="100" height="10" style="fill:rgb(3,16,49);"/>
        <g transform="matrix(6.12323e-17,-1,1,6.12323e-17,0,100)">
            <rect x="0" y="0" width="100" height="10" style="fill:rgb(3,16,49);"/>
        </g>
        <g transform="matrix(4.89859e-17,-0.8,1,6.12323e-17,20,100)">
            <rect x="0" y="0" width="100" height="10" style="fill:rgb(3,16,49);"/>
        </g>
        <g transform="matrix(0.8,6.16298e-33,-1.64346e-32,1,20,20)">
            <rect x="0" y="0" width="100" height="10" style="fill:rgb(3,16,49);"/>
        </g>
        <g transform="matrix(-0.8,7.34788e-17,-1.63286e-16,-1,100,100)">
            <rect x="0" y="0" width="100" height="10" style="fill:rgb(3,16,49);"/>
        </g>
    </g>
</svg>
