<svg width="32" height="32" viewBox="0 0 32 32" fill="none" xmlns="http://www.w3.org/2000/svg">
<path d="M16 0.5C7.4375 0.5 0.5 7.4375 0.5 16C0.5 24.5625 7.4375 31.5 16 31.5C24.5625 31.5 31.5 24.5625 31.5 16C31.5 7.4375 24.5625 0.5 16 0.5ZM23.5625 20.125C23.875 20.375 23.875 20.875 23.5625 21.1875L21.125 23.625C20.8125 23.9375 20.3125 23.9375 20.0625 23.625L16 19.5L11.875 23.625C11.625 23.9375 11.125 23.9375 10.8125 23.625L8.375 21.125C8.0625 20.875 8.0625 20.375 8.375 20.0625L12.5 16L8.375 11.9375C8.0625 11.6875 8.0625 11.1875 8.375 10.875L10.875 8.4375C11.125 8.125 11.625 8.125 11.9375 8.4375L16 12.5L20.0625 8.4375C20.3125 8.125 20.8125 8.125 21.125 8.4375L23.5625 10.875C23.875 11.1875 23.875 11.6875 23.5625 11.9375L19.5 16L23.5625 20.125Z" fill="#DE2F1B"/>
</svg>
