<?xml version="1.0" encoding="UTF-8" standalone="no"?>
<!DOCTYPE svg PUBLIC "-//W3C//DTD SVG 1.1//EN" "http://www.w3.org/Graphics/SVG/1.1/DTD/svg11.dtd">
<svg width="100%" height="100%" viewBox="0 0 290 202" version="1.1" xmlns="http://www.w3.org/2000/svg" xmlns:xlink="http://www.w3.org/1999/xlink" xml:space="preserve" xmlns:serif="http://www.serif.com/" style="fill-rule:evenodd;clip-rule:evenodd;stroke-linejoin:round;stroke-miterlimit:2;">
    <g id="Artboard1" transform="matrix(0.58,0,0,0.808,0,0)">
        <rect x="0" y="0" width="500" height="250" style="fill:none;"/>
        <clipPath id="_clip1">
            <rect x="0" y="0" width="500" height="250"/>
        </clipPath>
        <g clip-path="url(#_clip1)">
            <g transform="matrix(1.72414,0,0,1.93564,-181.034,-67.5502)">
                <g transform="matrix(1,0,0,0.639386,-154.805,16.0118)">
                    <g transform="matrix(150,0,0,150,253.715,134.038)">
                        <path d="M0.281,-0.337C0.298,-0.34 0.312,-0.335 0.323,-0.322C0.332,-0.311 0.34,-0.295 0.345,-0.275C0.344,-0.274 0.344,-0.273 0.344,-0.272C0.336,-0.245 0.329,-0.221 0.323,-0.198C0.32,-0.187 0.318,-0.176 0.316,-0.166C0.294,-0.131 0.263,-0.1 0.223,-0.073C0.214,-0.086 0.211,-0.109 0.212,-0.143C0.213,-0.179 0.22,-0.215 0.233,-0.252C0.246,-0.29 0.261,-0.317 0.278,-0.334L0.281,-0.337ZM0.414,-0.419C0.402,-0.421 0.394,-0.416 0.39,-0.405C0.387,-0.402 0.384,-0.399 0.383,-0.394L0.377,-0.376C0.367,-0.397 0.352,-0.41 0.333,-0.416C0.301,-0.426 0.261,-0.413 0.214,-0.376C0.175,-0.345 0.139,-0.306 0.106,-0.258C0.073,-0.21 0.053,-0.168 0.047,-0.133C0.036,-0.068 0.047,-0.025 0.08,-0.004C0.108,0.014 0.146,0.013 0.193,-0.007C0.232,-0.024 0.268,-0.049 0.303,-0.082C0.302,-0.065 0.302,-0.049 0.304,-0.036C0.308,-0.009 0.319,0.01 0.336,0.02C0.355,0.031 0.38,0.03 0.409,0.017C0.436,0.005 0.457,-0.006 0.474,-0.016C0.498,-0.031 0.518,-0.047 0.533,-0.065L0.534,-0.065C0.535,-0.066 0.535,-0.067 0.536,-0.068L0.541,-0.073L0.542,-0.075C0.545,-0.078 0.547,-0.081 0.548,-0.083C0.549,-0.085 0.549,-0.087 0.55,-0.088C0.552,-0.093 0.553,-0.097 0.552,-0.102C0.551,-0.107 0.55,-0.11 0.549,-0.113C0.547,-0.119 0.543,-0.124 0.538,-0.127C0.531,-0.131 0.524,-0.132 0.517,-0.129C0.513,-0.128 0.509,-0.126 0.506,-0.123L0.483,-0.098C0.474,-0.089 0.466,-0.083 0.458,-0.08C0.454,-0.079 0.45,-0.079 0.446,-0.079C0.449,-0.1 0.454,-0.124 0.461,-0.15C0.469,-0.179 0.482,-0.217 0.501,-0.264C0.502,-0.265 0.504,-0.272 0.509,-0.283C0.514,-0.294 0.517,-0.301 0.518,-0.304C0.524,-0.319 0.529,-0.332 0.533,-0.343L0.535,-0.348C0.536,-0.351 0.537,-0.354 0.538,-0.357C0.539,-0.359 0.539,-0.361 0.54,-0.362C0.542,-0.368 0.543,-0.373 0.544,-0.377L0.544,-0.387C0.544,-0.389 0.544,-0.391 0.543,-0.394C0.542,-0.398 0.539,-0.402 0.535,-0.405C0.531,-0.408 0.525,-0.411 0.518,-0.412C0.514,-0.413 0.509,-0.413 0.503,-0.414C0.494,-0.415 0.482,-0.415 0.465,-0.416C0.462,-0.416 0.46,-0.416 0.457,-0.417L0.452,-0.417L0.449,-0.417C0.429,-0.418 0.417,-0.418 0.414,-0.419Z" style="fill:rgb(51,51,51);fill-rule:nonzero;"/>
                    </g>
                    <g transform="matrix(150,0,0,150,332.015,134.038)">
                        <path d="M0.318,-0.579C0.318,-0.58 0.318,-0.58 0.317,-0.58L0.318,-0.579ZM0.074,-0.063C0.068,-0.064 0.063,-0.064 0.058,-0.061C0.053,-0.058 0.049,-0.053 0.048,-0.048C0.046,-0.045 0.044,-0.041 0.043,-0.038C0.042,-0.035 0.04,-0.03 0.039,-0.024C0.038,-0.021 0.038,-0.019 0.038,-0.018C0.037,-0.012 0.038,-0.007 0.041,-0.002C0.044,0.004 0.049,0.007 0.055,0.008C0.057,0.009 0.059,0.009 0.061,0.009C0.064,0.011 0.068,0.012 0.072,0.012L0.089,0.013C0.098,0.013 0.105,0.013 0.112,0.014C0.151,0.015 0.186,0.016 0.216,0.016C0.259,0.016 0.294,0.014 0.32,0.011C0.322,0.01 0.324,0.01 0.325,0.01L0.333,0.012C0.349,0.015 0.363,0.016 0.374,0.013C0.393,0.008 0.404,-0.003 0.407,-0.022C0.408,-0.031 0.404,-0.038 0.396,-0.043C0.393,-0.054 0.385,-0.06 0.374,-0.059C0.365,-0.059 0.357,-0.06 0.35,-0.061C0.349,-0.061 0.348,-0.061 0.347,-0.062C0.344,-0.063 0.341,-0.065 0.338,-0.067C0.331,-0.073 0.325,-0.08 0.32,-0.088C0.35,-0.16 0.383,-0.253 0.418,-0.367C0.456,-0.488 0.478,-0.575 0.483,-0.628C0.486,-0.634 0.489,-0.639 0.491,-0.643C0.493,-0.648 0.495,-0.653 0.496,-0.657C0.497,-0.66 0.497,-0.662 0.498,-0.664C0.498,-0.669 0.497,-0.673 0.496,-0.677C0.493,-0.685 0.488,-0.691 0.48,-0.694C0.474,-0.697 0.468,-0.697 0.461,-0.696C0.454,-0.695 0.446,-0.691 0.437,-0.685C0.434,-0.683 0.43,-0.681 0.427,-0.678C0.423,-0.675 0.417,-0.671 0.41,-0.665C0.383,-0.646 0.353,-0.633 0.32,-0.626C0.287,-0.618 0.258,-0.618 0.233,-0.626C0.231,-0.629 0.228,-0.631 0.225,-0.632C0.219,-0.635 0.213,-0.635 0.208,-0.633C0.202,-0.63 0.198,-0.626 0.196,-0.621C0.191,-0.61 0.189,-0.601 0.188,-0.594C0.188,-0.581 0.192,-0.572 0.201,-0.565C0.207,-0.561 0.215,-0.559 0.224,-0.558C0.228,-0.558 0.234,-0.558 0.242,-0.559C0.252,-0.56 0.259,-0.56 0.264,-0.559C0.273,-0.558 0.279,-0.556 0.284,-0.552C0.291,-0.545 0.292,-0.526 0.289,-0.495C0.288,-0.489 0.287,-0.481 0.286,-0.472C0.285,-0.462 0.284,-0.455 0.283,-0.451C0.275,-0.422 0.263,-0.383 0.247,-0.332L0.247,-0.331C0.218,-0.239 0.198,-0.171 0.187,-0.128C0.173,-0.101 0.16,-0.082 0.149,-0.073C0.131,-0.058 0.106,-0.055 0.074,-0.063Z" style="fill:rgb(0,105,255);fill-rule:nonzero;"/>
                    </g>
                    <g transform="matrix(150,0,0,150,402.065,134.038)">
                        <path d="M0.318,-0.579C0.318,-0.58 0.318,-0.58 0.317,-0.58L0.318,-0.579ZM0.074,-0.063C0.068,-0.064 0.063,-0.064 0.058,-0.061C0.053,-0.058 0.049,-0.053 0.048,-0.048C0.046,-0.045 0.044,-0.041 0.043,-0.038C0.042,-0.035 0.04,-0.03 0.039,-0.024C0.038,-0.021 0.038,-0.019 0.038,-0.018C0.037,-0.012 0.038,-0.007 0.041,-0.002C0.044,0.004 0.049,0.007 0.055,0.008C0.057,0.009 0.059,0.009 0.061,0.009C0.064,0.011 0.068,0.012 0.072,0.012L0.089,0.013C0.098,0.013 0.105,0.013 0.112,0.014C0.151,0.015 0.186,0.016 0.216,0.016C0.259,0.016 0.294,0.014 0.32,0.011C0.322,0.01 0.324,0.01 0.325,0.01L0.333,0.012C0.349,0.015 0.363,0.016 0.374,0.013C0.393,0.008 0.404,-0.003 0.407,-0.022C0.408,-0.031 0.404,-0.038 0.396,-0.043C0.393,-0.054 0.385,-0.06 0.374,-0.059C0.365,-0.059 0.357,-0.06 0.35,-0.061C0.349,-0.061 0.348,-0.061 0.347,-0.062C0.344,-0.063 0.341,-0.065 0.338,-0.067C0.331,-0.073 0.325,-0.08 0.32,-0.088C0.35,-0.16 0.383,-0.253 0.418,-0.367C0.456,-0.488 0.478,-0.575 0.483,-0.628C0.486,-0.634 0.489,-0.639 0.491,-0.643C0.493,-0.648 0.495,-0.653 0.496,-0.657C0.497,-0.66 0.497,-0.662 0.498,-0.664C0.498,-0.669 0.497,-0.673 0.496,-0.677C0.493,-0.685 0.488,-0.691 0.48,-0.694C0.474,-0.697 0.468,-0.697 0.461,-0.696C0.454,-0.695 0.446,-0.691 0.437,-0.685C0.434,-0.683 0.43,-0.681 0.427,-0.678C0.423,-0.675 0.417,-0.671 0.41,-0.665C0.383,-0.646 0.353,-0.633 0.32,-0.626C0.287,-0.618 0.258,-0.618 0.233,-0.626C0.231,-0.629 0.228,-0.631 0.225,-0.632C0.219,-0.635 0.213,-0.635 0.208,-0.633C0.202,-0.63 0.198,-0.626 0.196,-0.621C0.191,-0.61 0.189,-0.601 0.188,-0.594C0.188,-0.581 0.192,-0.572 0.201,-0.565C0.207,-0.561 0.215,-0.559 0.224,-0.558C0.228,-0.558 0.234,-0.558 0.242,-0.559C0.252,-0.56 0.259,-0.56 0.264,-0.559C0.273,-0.558 0.279,-0.556 0.284,-0.552C0.291,-0.545 0.292,-0.526 0.289,-0.495C0.288,-0.489 0.287,-0.481 0.286,-0.472C0.285,-0.462 0.284,-0.455 0.283,-0.451C0.275,-0.422 0.263,-0.383 0.247,-0.332L0.247,-0.331C0.218,-0.239 0.198,-0.171 0.187,-0.128C0.173,-0.101 0.16,-0.082 0.149,-0.073C0.131,-0.058 0.106,-0.055 0.074,-0.063Z" style="fill:rgb(0,105,255);fill-rule:nonzero;"/>
                    </g>
                    <g transform="matrix(150,0,0,150,472.115,134.038)">
                        <path d="M0.23,0.123C0.242,0.111 0.258,0.093 0.278,0.07L0.287,0.06C0.287,0.059 0.287,0.059 0.288,0.059C0.295,0.052 0.303,0.044 0.313,0.033C0.314,0.033 0.315,0.032 0.317,0.03L0.321,0.026C0.346,0.001 0.365,-0.018 0.378,-0.033C0.399,-0.056 0.417,-0.077 0.432,-0.097C0.469,-0.148 0.494,-0.201 0.506,-0.256C0.517,-0.302 0.518,-0.339 0.511,-0.367C0.504,-0.397 0.489,-0.413 0.467,-0.415C0.458,-0.424 0.446,-0.429 0.432,-0.43C0.411,-0.431 0.396,-0.424 0.387,-0.408C0.38,-0.397 0.378,-0.383 0.38,-0.366C0.382,-0.347 0.388,-0.326 0.399,-0.303C0.416,-0.264 0.422,-0.228 0.417,-0.195C0.41,-0.181 0.403,-0.167 0.394,-0.153C0.377,-0.124 0.354,-0.094 0.326,-0.063C0.319,-0.054 0.311,-0.045 0.302,-0.036C0.303,-0.039 0.303,-0.043 0.304,-0.048C0.304,-0.052 0.304,-0.055 0.304,-0.058L0.305,-0.061C0.308,-0.098 0.31,-0.128 0.311,-0.153C0.312,-0.206 0.309,-0.248 0.301,-0.28C0.296,-0.302 0.288,-0.32 0.278,-0.334C0.265,-0.368 0.247,-0.392 0.224,-0.407C0.197,-0.424 0.168,-0.428 0.136,-0.418C0.109,-0.409 0.084,-0.393 0.063,-0.368C0.041,-0.343 0.026,-0.314 0.018,-0.281L0.014,-0.275C0.011,-0.27 0.01,-0.264 0.012,-0.259C0.013,-0.253 0.017,-0.248 0.022,-0.245C0.031,-0.24 0.041,-0.239 0.051,-0.242C0.058,-0.244 0.065,-0.249 0.072,-0.256C0.078,-0.263 0.086,-0.276 0.096,-0.293L0.099,-0.299C0.106,-0.312 0.111,-0.321 0.114,-0.326C0.116,-0.329 0.118,-0.331 0.119,-0.333C0.124,-0.328 0.129,-0.318 0.134,-0.305C0.139,-0.292 0.145,-0.272 0.151,-0.245C0.163,-0.191 0.169,-0.129 0.17,-0.059C0.169,-0.052 0.167,-0.045 0.165,-0.037C0.165,-0.036 0.164,-0.031 0.162,-0.024C0.16,-0.016 0.159,-0.012 0.159,-0.011C0.157,0 0.155,0.009 0.153,0.016C0.139,0.075 0.122,0.116 0.101,0.139C0.09,0.151 0.078,0.16 0.064,0.165L0.055,0.165C0.036,0.163 0.011,0.155 -0.02,0.142C-0.021,0.141 -0.022,0.141 -0.024,0.14L-0.034,0.136L-0.037,0.135C-0.044,0.132 -0.049,0.129 -0.053,0.128C-0.066,0.123 -0.077,0.119 -0.086,0.117C-0.099,0.114 -0.111,0.115 -0.12,0.119C-0.133,0.124 -0.142,0.133 -0.148,0.146C-0.157,0.167 -0.159,0.185 -0.154,0.201C-0.148,0.216 -0.135,0.228 -0.116,0.235C-0.089,0.244 -0.05,0.245 -0.001,0.236C0.044,0.24 0.087,0.23 0.129,0.206C0.146,0.197 0.163,0.185 0.18,0.17C0.181,0.17 0.181,0.17 0.182,0.169C0.189,0.169 0.195,0.166 0.2,0.16C0.201,0.157 0.203,0.155 0.205,0.152C0.214,0.144 0.222,0.136 0.227,0.128C0.228,0.127 0.229,0.125 0.23,0.123Z" style="fill:rgb(51,51,51);fill-rule:nonzero;"/>
                    </g>
                </g>
                <g transform="matrix(1,0,0,0.639386,-44.5074,-4.01768)">
                    <g transform="matrix(66.6667,0,0,66.6667,147.514,261.234)">
                        <path d="M0.281,-0.685C0.278,-0.686 0.276,-0.686 0.273,-0.686C0.252,-0.685 0.234,-0.675 0.221,-0.657C0.21,-0.642 0.204,-0.625 0.203,-0.604C0.202,-0.584 0.209,-0.566 0.226,-0.55C0.242,-0.534 0.26,-0.526 0.281,-0.526C0.31,-0.526 0.33,-0.54 0.343,-0.567C0.354,-0.59 0.354,-0.613 0.345,-0.636C0.334,-0.667 0.317,-0.683 0.295,-0.686C0.29,-0.686 0.286,-0.686 0.281,-0.685ZM0.261,-0.097L0.26,-0.096L0.253,-0.089C0.25,-0.086 0.247,-0.083 0.244,-0.081C0.237,-0.074 0.23,-0.068 0.223,-0.063C0.221,-0.062 0.219,-0.06 0.218,-0.059L0.217,-0.059C0.208,-0.055 0.202,-0.053 0.197,-0.053C0.196,-0.056 0.196,-0.06 0.197,-0.065C0.198,-0.078 0.203,-0.096 0.211,-0.12C0.216,-0.133 0.225,-0.157 0.238,-0.193C0.24,-0.198 0.242,-0.203 0.243,-0.207C0.257,-0.245 0.267,-0.275 0.273,-0.297C0.282,-0.33 0.284,-0.356 0.28,-0.375C0.274,-0.404 0.256,-0.42 0.225,-0.422C0.2,-0.423 0.165,-0.412 0.12,-0.39C0.103,-0.381 0.085,-0.366 0.068,-0.345C0.056,-0.33 0.044,-0.313 0.032,-0.293C0.029,-0.288 0.028,-0.284 0.029,-0.279C0.029,-0.276 0.029,-0.272 0.03,-0.268C0.032,-0.263 0.036,-0.259 0.042,-0.256C0.047,-0.253 0.053,-0.253 0.059,-0.255C0.067,-0.258 0.075,-0.264 0.084,-0.271C0.089,-0.276 0.096,-0.282 0.104,-0.29L0.108,-0.294C0.108,-0.295 0.108,-0.295 0.109,-0.296L0.111,-0.298C0.122,-0.309 0.129,-0.316 0.134,-0.32C0.133,-0.31 0.129,-0.297 0.123,-0.282C0.12,-0.272 0.112,-0.252 0.099,-0.223C0.093,-0.209 0.088,-0.198 0.085,-0.189C0.07,-0.15 0.061,-0.118 0.059,-0.093C0.057,-0.056 0.067,-0.025 0.09,-0.002C0.104,0.011 0.12,0.019 0.138,0.02C0.15,0.021 0.163,0.019 0.177,0.015C0.196,0.013 0.216,0.006 0.239,-0.005C0.266,-0.019 0.289,-0.035 0.31,-0.054C0.32,-0.063 0.327,-0.072 0.332,-0.081C0.335,-0.086 0.338,-0.091 0.339,-0.096C0.34,-0.105 0.339,-0.112 0.335,-0.119C0.331,-0.126 0.325,-0.13 0.316,-0.131C0.311,-0.132 0.305,-0.131 0.3,-0.129C0.295,-0.126 0.289,-0.122 0.282,-0.117C0.28,-0.116 0.278,-0.114 0.276,-0.112C0.272,-0.11 0.269,-0.107 0.267,-0.104L0.261,-0.097Z" style="fill:rgb(51,51,51);fill-rule:nonzero;"/>
                    </g>
                    <g transform="matrix(66.6667,0,0,66.6667,170.847,261.234)">
                        <path d="M0.464,-0.185L0.465,-0.185C0.464,-0.182 0.463,-0.178 0.462,-0.173L0.464,-0.185ZM0.482,-0.003C0.483,-0.004 0.484,-0.004 0.485,-0.005C0.495,-0.01 0.505,-0.015 0.516,-0.022C0.536,-0.035 0.556,-0.052 0.576,-0.073C0.584,-0.082 0.59,-0.094 0.595,-0.111C0.596,-0.116 0.596,-0.12 0.597,-0.123C0.597,-0.13 0.595,-0.137 0.592,-0.142C0.585,-0.151 0.576,-0.154 0.564,-0.151C0.559,-0.15 0.554,-0.147 0.549,-0.143C0.546,-0.14 0.542,-0.137 0.539,-0.134C0.532,-0.128 0.525,-0.121 0.517,-0.113C0.516,-0.111 0.513,-0.107 0.508,-0.102L0.5,-0.094C0.493,-0.087 0.488,-0.081 0.483,-0.077C0.484,-0.08 0.485,-0.084 0.486,-0.088C0.488,-0.099 0.491,-0.113 0.496,-0.13C0.498,-0.136 0.5,-0.144 0.502,-0.153L0.502,-0.155C0.503,-0.156 0.503,-0.158 0.504,-0.16L0.506,-0.166C0.507,-0.168 0.507,-0.17 0.508,-0.172C0.508,-0.174 0.508,-0.175 0.509,-0.176C0.512,-0.186 0.514,-0.195 0.515,-0.202C0.526,-0.243 0.534,-0.277 0.538,-0.302C0.543,-0.338 0.543,-0.366 0.536,-0.386C0.526,-0.416 0.505,-0.429 0.473,-0.426C0.446,-0.423 0.409,-0.406 0.364,-0.375C0.344,-0.362 0.324,-0.342 0.303,-0.316C0.293,-0.304 0.283,-0.29 0.272,-0.275C0.276,-0.322 0.273,-0.358 0.263,-0.383C0.254,-0.406 0.24,-0.42 0.221,-0.426C0.202,-0.431 0.179,-0.427 0.153,-0.414C0.15,-0.413 0.148,-0.412 0.147,-0.409C0.135,-0.407 0.121,-0.4 0.104,-0.389C0.087,-0.377 0.071,-0.363 0.057,-0.347C0.039,-0.327 0.028,-0.308 0.024,-0.289C0.023,-0.283 0.024,-0.277 0.027,-0.272C0.03,-0.267 0.034,-0.263 0.04,-0.262C0.046,-0.261 0.052,-0.262 0.057,-0.265C0.062,-0.268 0.065,-0.272 0.066,-0.278C0.069,-0.291 0.078,-0.305 0.093,-0.321C0.097,-0.32 0.101,-0.321 0.105,-0.323C0.111,-0.326 0.116,-0.328 0.12,-0.329L0.123,-0.329C0.124,-0.328 0.124,-0.327 0.125,-0.326C0.127,-0.324 0.129,-0.32 0.132,-0.314C0.132,-0.313 0.132,-0.312 0.133,-0.311C0.132,-0.295 0.127,-0.273 0.119,-0.245C0.117,-0.237 0.114,-0.228 0.111,-0.217L0.104,-0.192L0.094,-0.162L0.094,-0.161C0.087,-0.143 0.078,-0.124 0.069,-0.104C0.068,-0.101 0.066,-0.096 0.063,-0.089C0.06,-0.082 0.057,-0.077 0.055,-0.072C0.052,-0.067 0.051,-0.064 0.051,-0.063L0.044,-0.048C0.043,-0.047 0.043,-0.045 0.043,-0.044C0.04,-0.039 0.038,-0.034 0.037,-0.03C0.036,-0.027 0.036,-0.024 0.036,-0.022C0.035,-0.019 0.035,-0.017 0.036,-0.015C0.036,-0.011 0.037,-0.007 0.04,-0.004C0.044,0.001 0.049,0.005 0.056,0.007C0.059,0.008 0.063,0.008 0.068,0.009C0.073,0.009 0.08,0.008 0.089,0.007L0.101,0.005C0.102,0.005 0.104,0.005 0.107,0.005C0.109,0.004 0.111,0.004 0.114,0.003L0.117,0.002L0.15,0.002C0.16,0.003 0.168,0.003 0.175,0.002C0.186,0.001 0.194,-0.002 0.2,-0.005C0.203,-0.008 0.206,-0.011 0.209,-0.015C0.21,-0.016 0.212,-0.018 0.213,-0.021C0.215,-0.026 0.217,-0.032 0.22,-0.039C0.225,-0.054 0.231,-0.071 0.237,-0.092C0.24,-0.101 0.242,-0.11 0.244,-0.119C0.248,-0.122 0.251,-0.125 0.252,-0.13C0.27,-0.177 0.3,-0.227 0.342,-0.278L0.346,-0.284L0.364,-0.305C0.368,-0.309 0.372,-0.312 0.375,-0.314C0.375,-0.313 0.375,-0.312 0.376,-0.311C0.377,-0.291 0.372,-0.252 0.36,-0.195C0.359,-0.188 0.357,-0.181 0.355,-0.173L0.354,-0.171C0.354,-0.17 0.354,-0.168 0.354,-0.166L0.348,-0.142C0.347,-0.139 0.347,-0.137 0.347,-0.135C0.346,-0.132 0.346,-0.13 0.345,-0.129C0.342,-0.113 0.339,-0.1 0.337,-0.09C0.335,-0.077 0.334,-0.066 0.333,-0.059L0.333,-0.045C0.334,-0.038 0.337,-0.033 0.341,-0.028L0.346,-0.023L0.348,-0.019C0.357,-0.006 0.37,0.003 0.389,0.009C0.405,0.014 0.422,0.016 0.44,0.014C0.457,0.012 0.471,0.006 0.482,-0.003Z" style="fill:rgb(51,51,51);fill-rule:nonzero;"/>
                    </g>
                    <g transform="matrix(66.6667,0,0,66.6667,210.581,261.234)">
                        <path d="M0.281,-0.685C0.278,-0.686 0.276,-0.686 0.273,-0.686C0.252,-0.685 0.234,-0.675 0.221,-0.657C0.21,-0.642 0.204,-0.625 0.203,-0.604C0.202,-0.584 0.209,-0.566 0.226,-0.55C0.242,-0.534 0.26,-0.526 0.281,-0.526C0.31,-0.526 0.33,-0.54 0.343,-0.567C0.354,-0.59 0.354,-0.613 0.345,-0.636C0.334,-0.667 0.317,-0.683 0.295,-0.686C0.29,-0.686 0.286,-0.686 0.281,-0.685ZM0.261,-0.097L0.26,-0.096L0.253,-0.089C0.25,-0.086 0.247,-0.083 0.244,-0.081C0.237,-0.074 0.23,-0.068 0.223,-0.063C0.221,-0.062 0.219,-0.06 0.218,-0.059L0.217,-0.059C0.208,-0.055 0.202,-0.053 0.197,-0.053C0.196,-0.056 0.196,-0.06 0.197,-0.065C0.198,-0.078 0.203,-0.096 0.211,-0.12C0.216,-0.133 0.225,-0.157 0.238,-0.193C0.24,-0.198 0.242,-0.203 0.243,-0.207C0.257,-0.245 0.267,-0.275 0.273,-0.297C0.282,-0.33 0.284,-0.356 0.28,-0.375C0.274,-0.404 0.256,-0.42 0.225,-0.422C0.2,-0.423 0.165,-0.412 0.12,-0.39C0.103,-0.381 0.085,-0.366 0.068,-0.345C0.056,-0.33 0.044,-0.313 0.032,-0.293C0.029,-0.288 0.028,-0.284 0.029,-0.279C0.029,-0.276 0.029,-0.272 0.03,-0.268C0.032,-0.263 0.036,-0.259 0.042,-0.256C0.047,-0.253 0.053,-0.253 0.059,-0.255C0.067,-0.258 0.075,-0.264 0.084,-0.271C0.089,-0.276 0.096,-0.282 0.104,-0.29L0.108,-0.294C0.108,-0.295 0.108,-0.295 0.109,-0.296L0.111,-0.298C0.122,-0.309 0.129,-0.316 0.134,-0.32C0.133,-0.31 0.129,-0.297 0.123,-0.282C0.12,-0.272 0.112,-0.252 0.099,-0.223C0.093,-0.209 0.088,-0.198 0.085,-0.189C0.07,-0.15 0.061,-0.118 0.059,-0.093C0.057,-0.056 0.067,-0.025 0.09,-0.002C0.104,0.011 0.12,0.019 0.138,0.02C0.15,0.021 0.163,0.019 0.177,0.015C0.196,0.013 0.216,0.006 0.239,-0.005C0.266,-0.019 0.289,-0.035 0.31,-0.054C0.32,-0.063 0.327,-0.072 0.332,-0.081C0.335,-0.086 0.338,-0.091 0.339,-0.096C0.34,-0.105 0.339,-0.112 0.335,-0.119C0.331,-0.126 0.325,-0.13 0.316,-0.131C0.311,-0.132 0.305,-0.131 0.3,-0.129C0.295,-0.126 0.289,-0.122 0.282,-0.117C0.28,-0.116 0.278,-0.114 0.276,-0.112C0.272,-0.11 0.269,-0.107 0.267,-0.104L0.261,-0.097Z" style="fill:rgb(51,51,51);fill-rule:nonzero;"/>
                    </g>
                    <g transform="matrix(66.6667,0,0,66.6667,233.914,261.234)">
                        <path d="M0.209,-0.569C0.203,-0.57 0.198,-0.568 0.193,-0.565C0.188,-0.561 0.186,-0.556 0.185,-0.55C0.184,-0.546 0.185,-0.542 0.186,-0.539L0.186,-0.535C0.187,-0.51 0.182,-0.479 0.171,-0.44C0.168,-0.428 0.164,-0.415 0.159,-0.402C0.152,-0.403 0.146,-0.405 0.14,-0.406C0.119,-0.41 0.101,-0.412 0.086,-0.412L0.085,-0.412C0.079,-0.413 0.074,-0.412 0.069,-0.409C0.064,-0.406 0.06,-0.401 0.059,-0.395C0.052,-0.366 0.062,-0.346 0.088,-0.336C0.099,-0.331 0.113,-0.329 0.132,-0.328C0.131,-0.327 0.131,-0.327 0.131,-0.326C0.13,-0.323 0.128,-0.319 0.127,-0.315C0.114,-0.281 0.104,-0.256 0.098,-0.241C0.089,-0.213 0.081,-0.189 0.076,-0.169C0.061,-0.115 0.06,-0.073 0.072,-0.042C0.08,-0.022 0.094,-0.007 0.115,0.002C0.126,0.007 0.143,0.01 0.166,0.013C0.182,0.015 0.197,0.014 0.212,0.009C0.225,0.009 0.238,0.005 0.252,-0.002C0.272,-0.012 0.291,-0.027 0.31,-0.047L0.313,-0.05C0.324,-0.057 0.335,-0.066 0.344,-0.077C0.353,-0.088 0.358,-0.1 0.361,-0.111C0.362,-0.118 0.362,-0.125 0.361,-0.132C0.358,-0.141 0.353,-0.148 0.345,-0.153C0.333,-0.16 0.316,-0.161 0.295,-0.155C0.289,-0.154 0.285,-0.15 0.282,-0.145C0.279,-0.14 0.278,-0.134 0.279,-0.128C0.279,-0.127 0.279,-0.126 0.278,-0.125C0.276,-0.121 0.273,-0.116 0.27,-0.11C0.27,-0.109 0.27,-0.108 0.269,-0.106C0.268,-0.104 0.266,-0.102 0.265,-0.1C0.264,-0.097 0.263,-0.096 0.263,-0.095C0.261,-0.091 0.26,-0.089 0.259,-0.088C0.247,-0.071 0.238,-0.06 0.231,-0.053C0.226,-0.058 0.222,-0.066 0.219,-0.078C0.218,-0.078 0.218,-0.078 0.218,-0.079C0.219,-0.12 0.227,-0.164 0.241,-0.213C0.25,-0.242 0.263,-0.28 0.28,-0.325C0.291,-0.326 0.302,-0.327 0.313,-0.329C0.339,-0.334 0.359,-0.341 0.373,-0.352C0.377,-0.355 0.38,-0.359 0.383,-0.363C0.384,-0.365 0.385,-0.367 0.386,-0.37C0.395,-0.373 0.4,-0.379 0.401,-0.388C0.402,-0.394 0.401,-0.399 0.398,-0.404C0.394,-0.409 0.389,-0.412 0.383,-0.413C0.373,-0.414 0.359,-0.415 0.34,-0.416L0.339,-0.416C0.328,-0.416 0.321,-0.416 0.316,-0.417C0.332,-0.459 0.344,-0.496 0.352,-0.527C0.361,-0.532 0.364,-0.539 0.363,-0.549C0.362,-0.555 0.36,-0.56 0.355,-0.564C0.35,-0.567 0.345,-0.568 0.339,-0.567C0.302,-0.562 0.259,-0.563 0.209,-0.569Z" style="fill:rgb(51,51,51);fill-rule:nonzero;"/>
                    </g>
                    <g transform="matrix(66.6667,0,0,66.6667,259.314,261.234)">
                        <path d="M0.281,-0.685C0.278,-0.686 0.276,-0.686 0.273,-0.686C0.252,-0.685 0.234,-0.675 0.221,-0.657C0.21,-0.642 0.204,-0.625 0.203,-0.604C0.202,-0.584 0.209,-0.566 0.226,-0.55C0.242,-0.534 0.26,-0.526 0.281,-0.526C0.31,-0.526 0.33,-0.54 0.343,-0.567C0.354,-0.59 0.354,-0.613 0.345,-0.636C0.334,-0.667 0.317,-0.683 0.295,-0.686C0.29,-0.686 0.286,-0.686 0.281,-0.685ZM0.261,-0.097L0.26,-0.096L0.253,-0.089C0.25,-0.086 0.247,-0.083 0.244,-0.081C0.237,-0.074 0.23,-0.068 0.223,-0.063C0.221,-0.062 0.219,-0.06 0.218,-0.059L0.217,-0.059C0.208,-0.055 0.202,-0.053 0.197,-0.053C0.196,-0.056 0.196,-0.06 0.197,-0.065C0.198,-0.078 0.203,-0.096 0.211,-0.12C0.216,-0.133 0.225,-0.157 0.238,-0.193C0.24,-0.198 0.242,-0.203 0.243,-0.207C0.257,-0.245 0.267,-0.275 0.273,-0.297C0.282,-0.33 0.284,-0.356 0.28,-0.375C0.274,-0.404 0.256,-0.42 0.225,-0.422C0.2,-0.423 0.165,-0.412 0.12,-0.39C0.103,-0.381 0.085,-0.366 0.068,-0.345C0.056,-0.33 0.044,-0.313 0.032,-0.293C0.029,-0.288 0.028,-0.284 0.029,-0.279C0.029,-0.276 0.029,-0.272 0.03,-0.268C0.032,-0.263 0.036,-0.259 0.042,-0.256C0.047,-0.253 0.053,-0.253 0.059,-0.255C0.067,-0.258 0.075,-0.264 0.084,-0.271C0.089,-0.276 0.096,-0.282 0.104,-0.29L0.108,-0.294C0.108,-0.295 0.108,-0.295 0.109,-0.296L0.111,-0.298C0.122,-0.309 0.129,-0.316 0.134,-0.32C0.133,-0.31 0.129,-0.297 0.123,-0.282C0.12,-0.272 0.112,-0.252 0.099,-0.223C0.093,-0.209 0.088,-0.198 0.085,-0.189C0.07,-0.15 0.061,-0.118 0.059,-0.093C0.057,-0.056 0.067,-0.025 0.09,-0.002C0.104,0.011 0.12,0.019 0.138,0.02C0.15,0.021 0.163,0.019 0.177,0.015C0.196,0.013 0.216,0.006 0.239,-0.005C0.266,-0.019 0.289,-0.035 0.31,-0.054C0.32,-0.063 0.327,-0.072 0.332,-0.081C0.335,-0.086 0.338,-0.091 0.339,-0.096C0.34,-0.105 0.339,-0.112 0.335,-0.119C0.331,-0.126 0.325,-0.13 0.316,-0.131C0.311,-0.132 0.305,-0.131 0.3,-0.129C0.295,-0.126 0.289,-0.122 0.282,-0.117C0.28,-0.116 0.278,-0.114 0.276,-0.112C0.272,-0.11 0.269,-0.107 0.267,-0.104L0.261,-0.097Z" style="fill:rgb(51,51,51);fill-rule:nonzero;"/>
                    </g>
                    <g transform="matrix(66.6667,0,0,66.6667,281.981,261.234)">
                        <path d="M0.281,-0.337C0.298,-0.34 0.312,-0.335 0.323,-0.322C0.332,-0.311 0.34,-0.295 0.345,-0.275C0.344,-0.274 0.344,-0.273 0.344,-0.272C0.336,-0.245 0.329,-0.221 0.323,-0.198C0.32,-0.187 0.318,-0.176 0.316,-0.166C0.294,-0.131 0.263,-0.1 0.223,-0.073C0.214,-0.086 0.211,-0.109 0.212,-0.143C0.213,-0.179 0.22,-0.215 0.233,-0.252C0.246,-0.29 0.261,-0.317 0.278,-0.334L0.281,-0.337ZM0.414,-0.419C0.402,-0.421 0.394,-0.416 0.39,-0.405C0.387,-0.402 0.384,-0.399 0.383,-0.394L0.377,-0.376C0.367,-0.397 0.352,-0.41 0.333,-0.416C0.301,-0.426 0.261,-0.413 0.214,-0.376C0.175,-0.345 0.139,-0.306 0.106,-0.258C0.073,-0.21 0.053,-0.168 0.047,-0.133C0.036,-0.068 0.047,-0.025 0.08,-0.004C0.108,0.014 0.146,0.013 0.193,-0.007C0.232,-0.024 0.268,-0.049 0.303,-0.082C0.302,-0.065 0.302,-0.049 0.304,-0.036C0.308,-0.009 0.319,0.01 0.336,0.02C0.355,0.031 0.38,0.03 0.409,0.017C0.436,0.005 0.457,-0.006 0.474,-0.016C0.498,-0.031 0.518,-0.047 0.533,-0.065L0.534,-0.065C0.535,-0.066 0.535,-0.067 0.536,-0.068L0.541,-0.073L0.542,-0.075C0.545,-0.078 0.547,-0.081 0.548,-0.083C0.549,-0.085 0.549,-0.087 0.55,-0.088C0.552,-0.093 0.553,-0.097 0.552,-0.102C0.551,-0.107 0.55,-0.11 0.549,-0.113C0.547,-0.119 0.543,-0.124 0.538,-0.127C0.531,-0.131 0.524,-0.132 0.517,-0.129C0.513,-0.128 0.509,-0.126 0.506,-0.123L0.483,-0.098C0.474,-0.089 0.466,-0.083 0.458,-0.08C0.454,-0.079 0.45,-0.079 0.446,-0.079C0.449,-0.1 0.454,-0.124 0.461,-0.15C0.469,-0.179 0.482,-0.217 0.501,-0.264C0.502,-0.265 0.504,-0.272 0.509,-0.283C0.514,-0.294 0.517,-0.301 0.518,-0.304C0.524,-0.319 0.529,-0.332 0.533,-0.343L0.535,-0.348C0.536,-0.351 0.537,-0.354 0.538,-0.357C0.539,-0.359 0.539,-0.361 0.54,-0.362C0.542,-0.368 0.543,-0.373 0.544,-0.377L0.544,-0.387C0.544,-0.389 0.544,-0.391 0.543,-0.394C0.542,-0.398 0.539,-0.402 0.535,-0.405C0.531,-0.408 0.525,-0.411 0.518,-0.412C0.514,-0.413 0.509,-0.413 0.503,-0.414C0.494,-0.415 0.482,-0.415 0.465,-0.416C0.462,-0.416 0.46,-0.416 0.457,-0.417L0.452,-0.417L0.449,-0.417C0.429,-0.418 0.417,-0.418 0.414,-0.419Z" style="fill:rgb(51,51,51);fill-rule:nonzero;"/>
                    </g>
                    <g transform="matrix(66.6667,0,0,66.6667,318.781,261.234)">
                        <path d="M0.209,-0.569C0.203,-0.57 0.198,-0.568 0.193,-0.565C0.188,-0.561 0.186,-0.556 0.185,-0.55C0.184,-0.546 0.185,-0.542 0.186,-0.539L0.186,-0.535C0.187,-0.51 0.182,-0.479 0.171,-0.44C0.168,-0.428 0.164,-0.415 0.159,-0.402C0.152,-0.403 0.146,-0.405 0.14,-0.406C0.119,-0.41 0.101,-0.412 0.086,-0.412L0.085,-0.412C0.079,-0.413 0.074,-0.412 0.069,-0.409C0.064,-0.406 0.06,-0.401 0.059,-0.395C0.052,-0.366 0.062,-0.346 0.088,-0.336C0.099,-0.331 0.113,-0.329 0.132,-0.328C0.131,-0.327 0.131,-0.327 0.131,-0.326C0.13,-0.323 0.128,-0.319 0.127,-0.315C0.114,-0.281 0.104,-0.256 0.098,-0.241C0.089,-0.213 0.081,-0.189 0.076,-0.169C0.061,-0.115 0.06,-0.073 0.072,-0.042C0.08,-0.022 0.094,-0.007 0.115,0.002C0.126,0.007 0.143,0.01 0.166,0.013C0.182,0.015 0.197,0.014 0.212,0.009C0.225,0.009 0.238,0.005 0.252,-0.002C0.272,-0.012 0.291,-0.027 0.31,-0.047L0.313,-0.05C0.324,-0.057 0.335,-0.066 0.344,-0.077C0.353,-0.088 0.358,-0.1 0.361,-0.111C0.362,-0.118 0.362,-0.125 0.361,-0.132C0.358,-0.141 0.353,-0.148 0.345,-0.153C0.333,-0.16 0.316,-0.161 0.295,-0.155C0.289,-0.154 0.285,-0.15 0.282,-0.145C0.279,-0.14 0.278,-0.134 0.279,-0.128C0.279,-0.127 0.279,-0.126 0.278,-0.125C0.276,-0.121 0.273,-0.116 0.27,-0.11C0.27,-0.109 0.27,-0.108 0.269,-0.106C0.268,-0.104 0.266,-0.102 0.265,-0.1C0.264,-0.097 0.263,-0.096 0.263,-0.095C0.261,-0.091 0.26,-0.089 0.259,-0.088C0.247,-0.071 0.238,-0.06 0.231,-0.053C0.226,-0.058 0.222,-0.066 0.219,-0.078C0.218,-0.078 0.218,-0.078 0.218,-0.079C0.219,-0.12 0.227,-0.164 0.241,-0.213C0.25,-0.242 0.263,-0.28 0.28,-0.325C0.291,-0.326 0.302,-0.327 0.313,-0.329C0.339,-0.334 0.359,-0.341 0.373,-0.352C0.377,-0.355 0.38,-0.359 0.383,-0.363C0.384,-0.365 0.385,-0.367 0.386,-0.37C0.395,-0.373 0.4,-0.379 0.401,-0.388C0.402,-0.394 0.401,-0.399 0.398,-0.404C0.394,-0.409 0.389,-0.412 0.383,-0.413C0.373,-0.414 0.359,-0.415 0.34,-0.416L0.339,-0.416C0.328,-0.416 0.321,-0.416 0.316,-0.417C0.332,-0.459 0.344,-0.496 0.352,-0.527C0.361,-0.532 0.364,-0.539 0.363,-0.549C0.362,-0.555 0.36,-0.56 0.355,-0.564C0.35,-0.567 0.345,-0.568 0.339,-0.567C0.302,-0.562 0.259,-0.563 0.209,-0.569Z" style="fill:rgb(51,51,51);fill-rule:nonzero;"/>
                    </g>
                    <g transform="matrix(66.6667,0,0,66.6667,344.181,261.234)">
                        <path d="M0.281,-0.685C0.278,-0.686 0.276,-0.686 0.273,-0.686C0.252,-0.685 0.234,-0.675 0.221,-0.657C0.21,-0.642 0.204,-0.625 0.203,-0.604C0.202,-0.584 0.209,-0.566 0.226,-0.55C0.242,-0.534 0.26,-0.526 0.281,-0.526C0.31,-0.526 0.33,-0.54 0.343,-0.567C0.354,-0.59 0.354,-0.613 0.345,-0.636C0.334,-0.667 0.317,-0.683 0.295,-0.686C0.29,-0.686 0.286,-0.686 0.281,-0.685ZM0.261,-0.097L0.26,-0.096L0.253,-0.089C0.25,-0.086 0.247,-0.083 0.244,-0.081C0.237,-0.074 0.23,-0.068 0.223,-0.063C0.221,-0.062 0.219,-0.06 0.218,-0.059L0.217,-0.059C0.208,-0.055 0.202,-0.053 0.197,-0.053C0.196,-0.056 0.196,-0.06 0.197,-0.065C0.198,-0.078 0.203,-0.096 0.211,-0.12C0.216,-0.133 0.225,-0.157 0.238,-0.193C0.24,-0.198 0.242,-0.203 0.243,-0.207C0.257,-0.245 0.267,-0.275 0.273,-0.297C0.282,-0.33 0.284,-0.356 0.28,-0.375C0.274,-0.404 0.256,-0.42 0.225,-0.422C0.2,-0.423 0.165,-0.412 0.12,-0.39C0.103,-0.381 0.085,-0.366 0.068,-0.345C0.056,-0.33 0.044,-0.313 0.032,-0.293C0.029,-0.288 0.028,-0.284 0.029,-0.279C0.029,-0.276 0.029,-0.272 0.03,-0.268C0.032,-0.263 0.036,-0.259 0.042,-0.256C0.047,-0.253 0.053,-0.253 0.059,-0.255C0.067,-0.258 0.075,-0.264 0.084,-0.271C0.089,-0.276 0.096,-0.282 0.104,-0.29L0.108,-0.294C0.108,-0.295 0.108,-0.295 0.109,-0.296L0.111,-0.298C0.122,-0.309 0.129,-0.316 0.134,-0.32C0.133,-0.31 0.129,-0.297 0.123,-0.282C0.12,-0.272 0.112,-0.252 0.099,-0.223C0.093,-0.209 0.088,-0.198 0.085,-0.189C0.07,-0.15 0.061,-0.118 0.059,-0.093C0.057,-0.056 0.067,-0.025 0.09,-0.002C0.104,0.011 0.12,0.019 0.138,0.02C0.15,0.021 0.163,0.019 0.177,0.015C0.196,0.013 0.216,0.006 0.239,-0.005C0.266,-0.019 0.289,-0.035 0.31,-0.054C0.32,-0.063 0.327,-0.072 0.332,-0.081C0.335,-0.086 0.338,-0.091 0.339,-0.096C0.34,-0.105 0.339,-0.112 0.335,-0.119C0.331,-0.126 0.325,-0.13 0.316,-0.131C0.311,-0.132 0.305,-0.131 0.3,-0.129C0.295,-0.126 0.289,-0.122 0.282,-0.117C0.28,-0.116 0.278,-0.114 0.276,-0.112C0.272,-0.11 0.269,-0.107 0.267,-0.104L0.261,-0.097Z" style="fill:rgb(51,51,51);fill-rule:nonzero;"/>
                    </g>
                    <g transform="matrix(66.6667,0,0,66.6667,372.181,261.234)">
                        <path d="M0.497,-0.369L0.495,-0.369L0.495,-0.371L0.497,-0.369ZM0.261,-0.078C0.256,-0.08 0.251,-0.082 0.246,-0.085C0.231,-0.093 0.224,-0.105 0.225,-0.12C0.226,-0.135 0.235,-0.156 0.25,-0.184C0.253,-0.19 0.258,-0.198 0.264,-0.207C0.279,-0.232 0.289,-0.25 0.294,-0.259C0.298,-0.268 0.301,-0.275 0.304,-0.282C0.305,-0.283 0.305,-0.284 0.306,-0.285C0.316,-0.3 0.326,-0.324 0.336,-0.355C0.342,-0.374 0.345,-0.389 0.344,-0.401C0.343,-0.412 0.338,-0.421 0.331,-0.428C0.323,-0.434 0.313,-0.436 0.302,-0.434C0.291,-0.432 0.282,-0.427 0.274,-0.418C0.27,-0.413 0.265,-0.407 0.26,-0.398L0.26,-0.397C0.259,-0.396 0.259,-0.396 0.258,-0.396C0.255,-0.39 0.252,-0.386 0.25,-0.383C0.241,-0.385 0.228,-0.39 0.211,-0.398C0.209,-0.399 0.206,-0.4 0.203,-0.402C0.188,-0.409 0.177,-0.414 0.17,-0.417C0.157,-0.422 0.144,-0.425 0.133,-0.426C0.118,-0.427 0.105,-0.425 0.092,-0.419C0.082,-0.416 0.074,-0.41 0.067,-0.401C0.063,-0.397 0.059,-0.393 0.056,-0.389C0.052,-0.384 0.051,-0.378 0.052,-0.371C0.048,-0.357 0.045,-0.34 0.044,-0.32L0.044,-0.316C0.043,-0.311 0.044,-0.307 0.046,-0.303C0.047,-0.296 0.049,-0.291 0.054,-0.288C0.059,-0.284 0.064,-0.282 0.07,-0.283C0.075,-0.283 0.08,-0.285 0.084,-0.289C0.087,-0.293 0.089,-0.298 0.09,-0.303C0.097,-0.308 0.105,-0.312 0.113,-0.313C0.122,-0.315 0.136,-0.314 0.153,-0.31C0.154,-0.309 0.156,-0.308 0.157,-0.307C0.161,-0.305 0.165,-0.304 0.17,-0.304C0.172,-0.304 0.174,-0.304 0.175,-0.305C0.183,-0.304 0.19,-0.302 0.195,-0.301C0.207,-0.3 0.218,-0.299 0.228,-0.3C0.235,-0.3 0.241,-0.301 0.247,-0.303C0.246,-0.301 0.244,-0.299 0.243,-0.298C0.233,-0.285 0.214,-0.268 0.186,-0.246L0.183,-0.243C0.182,-0.243 0.182,-0.243 0.182,-0.243L0.18,-0.241C0.163,-0.228 0.151,-0.217 0.142,-0.209C0.127,-0.196 0.116,-0.184 0.107,-0.173C0.084,-0.141 0.075,-0.107 0.082,-0.071C0.089,-0.038 0.111,-0.014 0.148,0.001C0.165,0.007 0.183,0.011 0.202,0.012C0.222,0.017 0.243,0.018 0.264,0.015C0.294,0.01 0.325,-0.005 0.357,-0.029C0.406,-0.065 0.449,-0.114 0.487,-0.175C0.493,-0.184 0.498,-0.195 0.501,-0.207C0.523,-0.24 0.538,-0.27 0.546,-0.298C0.561,-0.351 0.55,-0.389 0.513,-0.413C0.493,-0.426 0.475,-0.431 0.46,-0.428C0.444,-0.424 0.433,-0.412 0.426,-0.393C0.419,-0.372 0.419,-0.338 0.424,-0.291C0.425,-0.281 0.427,-0.269 0.429,-0.256L0.428,-0.255C0.424,-0.245 0.419,-0.234 0.414,-0.221C0.414,-0.22 0.412,-0.216 0.409,-0.207C0.406,-0.198 0.403,-0.193 0.402,-0.191C0.387,-0.152 0.37,-0.125 0.353,-0.111C0.332,-0.094 0.302,-0.083 0.261,-0.078Z" style="fill:rgb(51,51,51);fill-rule:nonzero;"/>
                    </g>
                    <g transform="matrix(66.6667,0,0,66.6667,406.914,261.234)">
                        <path d="M0.206,-0.213C0.228,-0.278 0.254,-0.323 0.284,-0.347C0.297,-0.357 0.309,-0.362 0.319,-0.361C0.327,-0.36 0.333,-0.357 0.338,-0.351C0.343,-0.343 0.345,-0.333 0.344,-0.322C0.343,-0.307 0.336,-0.293 0.324,-0.279C0.3,-0.25 0.261,-0.228 0.206,-0.213ZM0.237,-0.147C0.24,-0.149 0.243,-0.152 0.245,-0.155C0.25,-0.157 0.259,-0.16 0.27,-0.165C0.275,-0.168 0.279,-0.17 0.283,-0.171C0.319,-0.184 0.35,-0.199 0.377,-0.217C0.416,-0.238 0.444,-0.26 0.463,-0.281C0.499,-0.324 0.499,-0.365 0.463,-0.404C0.448,-0.42 0.427,-0.43 0.4,-0.434C0.383,-0.436 0.365,-0.436 0.347,-0.434C0.341,-0.433 0.335,-0.432 0.328,-0.431C0.285,-0.426 0.243,-0.411 0.202,-0.386C0.162,-0.363 0.13,-0.334 0.107,-0.301L0.103,-0.295C0.1,-0.29 0.098,-0.286 0.095,-0.282C0.078,-0.259 0.064,-0.234 0.054,-0.208C0.036,-0.159 0.034,-0.113 0.048,-0.068C0.063,-0.023 0.089,0.007 0.128,0.023C0.144,0.029 0.161,0.032 0.178,0.032C0.182,0.033 0.186,0.033 0.191,0.032C0.192,0.031 0.193,0.031 0.194,0.031C0.213,0.028 0.233,0.022 0.253,0.012C0.273,0.005 0.291,-0.002 0.307,-0.009C0.324,-0.014 0.34,-0.023 0.356,-0.034C0.376,-0.045 0.403,-0.062 0.436,-0.084C0.44,-0.087 0.443,-0.091 0.444,-0.096C0.447,-0.101 0.449,-0.106 0.449,-0.111C0.45,-0.122 0.445,-0.131 0.435,-0.136C0.426,-0.141 0.413,-0.142 0.395,-0.14C0.393,-0.14 0.391,-0.139 0.389,-0.138C0.384,-0.138 0.379,-0.136 0.375,-0.132C0.359,-0.116 0.34,-0.103 0.318,-0.093C0.304,-0.087 0.283,-0.08 0.254,-0.071C0.237,-0.066 0.224,-0.062 0.217,-0.06C0.204,-0.07 0.194,-0.085 0.187,-0.106L0.187,-0.12C0.188,-0.12 0.188,-0.12 0.189,-0.121L0.19,-0.122L0.191,-0.122C0.211,-0.133 0.226,-0.142 0.237,-0.147Z" style="fill:rgb(51,51,51);fill-rule:nonzero;"/>
                    </g>
                </g>
            </g>
        </g>
    </g>
</svg>
