<svg width="134" height="32" viewBox="0 0 134 32" fill="none" xmlns="http://www.w3.org/2000/svg">
<g clip-path="url(#clip0_7152_13371)">
<path d="M27.0834 0.832515V3.81742C27.0834 4.30331 26.7393 4.64994 26.257 4.64994H23.2941C22.8118 4.64994 22.4678 4.30331 22.4678 3.81742V0.832515C22.4678 0.348116 22.8118 0 23.2941 0H26.257C26.7393 0 27.0834 0.348116 27.0834 0.832515Z" fill="#7569CF"/>
<path d="M107.081 20.1996C107.081 26.9323 101.981 32 95.2984 32C88.6154 32 83.516 26.9323 83.516 20.1996C83.516 13.6047 88.6154 8.60809 95.2984 8.60809C101.981 8.60809 107.081 13.6047 107.081 20.1996ZM102.739 20.1996C102.739 15.8252 99.5684 12.5648 95.2969 12.5648C91.0254 12.5648 87.8552 15.8267 87.8552 20.1996C87.8552 24.6422 91.0254 28.0433 95.2969 28.0433C99.5684 28.0433 102.739 24.6422 102.739 20.1996Z" fill="#7569CF"/>
<path d="M69.1899 8.60809C66.227 8.60809 63.5406 9.92501 61.7482 11.7989V0.832515C61.7482 0.348116 61.4041 0 60.9894 0H58.303C57.8898 0 57.5443 0.348116 57.5443 0.832515V30.612C57.5443 31.0964 57.9575 31.5126 58.4398 31.5126H60.8512C61.3335 31.5126 61.7467 31.0964 61.7467 30.612V28.5988C63.5376 30.5424 66.1564 32 69.1884 32C75.9405 32 80.9708 26.9323 80.9708 20.1996C80.9722 13.6061 75.942 8.60809 69.1899 8.60809ZM69.1899 28.0433C64.9184 28.0433 61.7482 24.6422 61.7482 20.1996C61.7482 15.8252 64.9184 12.5648 69.1899 12.5648C73.4614 12.5648 76.7007 15.8267 76.7007 20.1996C76.7007 24.6422 73.4629 28.0433 69.1899 28.0433Z" fill="#7569CF"/>
<path d="M42.7329 8.60809C39.8391 8.60809 37.1512 9.92501 35.3603 11.7989V0.832515C35.3603 0.348116 35.0162 0 34.5339 0H31.9151C31.4328 0 31.0888 0.348116 31.0888 0.832515V30.612C31.0888 31.0964 31.5019 31.5126 31.9842 31.5126H34.4648C34.9471 31.5126 35.3603 31.0964 35.3603 30.612V28.5988C37.0836 30.5424 39.7009 32 42.7329 32C49.485 32 54.5844 26.9323 54.5844 20.1996C54.5829 13.6061 49.485 8.60809 42.7329 8.60809ZM42.7329 28.0433C38.5305 28.0433 35.3603 24.6422 35.3603 20.1996C35.3603 15.8252 38.5305 12.5648 42.7329 12.5648C47.0735 12.5648 50.2437 15.8267 50.2437 20.1996C50.2423 24.6422 47.0735 28.0433 42.7329 28.0433Z" fill="#7569CF"/>
<path d="M26.8849 9.92648V30.6816C26.8849 31.1675 26.5408 31.5141 26.1261 31.5141H23.4397C23.0265 31.5141 22.681 31.1675 22.681 30.6816V9.92648C22.681 9.44208 23.0251 9.09397 23.4397 9.09397H26.1261C26.5408 9.09249 26.8849 9.4406 26.8849 9.92648Z" fill="#7569CF"/>
<path d="M133.333 16.9125C133.333 16.2267 133.004 15.5823 132.45 15.1838L124.057 9.1562C122.599 8.10889 120.639 8.1074 119.178 9.15027L114.112 12.7677V9.88798C114.112 9.4495 113.759 9.09398 113.324 9.09398H110.691C110.255 9.09398 109.901 9.4495 109.901 9.88798V30.7186C109.901 31.1571 110.254 31.5141 110.691 31.5141H113.324C113.759 31.5141 114.112 31.1586 114.112 30.7186V17.9702L121.611 12.6122L129.121 18.0057V18.8842H129.119V30.7186C129.119 31.1571 129.472 31.5141 129.907 31.5141H132.541C132.976 31.5141 133.33 31.1586 133.33 30.7186V23.9163H133.335V16.9125H133.333Z" fill="#7569CF"/>
<path d="M14.2085 9.15324C12.7455 8.10296 10.7781 8.1 9.31207 9.14731L4.22741 12.7796V9.88947C4.22741 9.44951 3.87305 9.0925 3.43634 9.0925H0.791078C0.354368 9.09102 0 9.44803 0 9.88947V30.7157C0 31.1556 0.354368 31.5126 0.791078 31.5126H3.43487C3.87158 31.5126 4.22594 31.1556 4.22594 30.7157V18.0013L11.7529 12.624L16.9126 16.3303C17.2684 16.5866 17.7625 16.5022 18.0169 16.1437L19.552 13.9735C19.8063 13.615 19.7225 13.1173 19.3667 12.861L14.2085 9.15324Z" fill="#7569CF"/>
</g>
<defs>
<clipPath id="clip0_7152_13371">
<rect width="133.333" height="32" fill="white"/>
</clipPath>
</defs>
</svg>
