<?xml version="1.0" encoding="UTF-8"?>
<svg id="Layer_1" xmlns="http://www.w3.org/2000/svg" xmlns:xlink="http://www.w3.org/1999/xlink" version="1.1" viewBox="0 0 795 182">
  <!-- Generator: Adobe Illustrator 30.1.0, SVG Export Plug-In . SVG Version: 2.1.1 Build 136)  -->
  <defs>
    <style>
      .st0 {
        mask: url(#mask);
      }

      .st1 {
        fill: #fff;
      }

      .st2 {
        fill: url(#linear-gradient);
        fill-rule: evenodd;
      }
    </style>
    <mask id="mask" x="-.1" y="0" width="181.9" height="182" maskUnits="userSpaceOnUse">
      <g id="mask0_652_44">
        <path class="st1" d="M181.6,0H-.1v181.8h181.8V0Z"/>
      </g>
    </mask>
    <linearGradient id="linear-gradient" x1="-38.6" y1="-72.2" x2="214.4" y2="298.3" gradientUnits="userSpaceOnUse">
      <stop offset="0" stop-color="#209bc4"/>
      <stop offset="1" stop-color="#4dc9c0"/>
    </linearGradient>
  </defs>
  <g class="st0">
    <path class="st2" d="M157.2,19.5h0C143.3,6,125.2-.4,107.3,0c0,0,0,0-.1,0-.6,0-1.2,0-1.8,0H-.1v182h125.1c84.2-76.6,56.4-139.1,32.2-162.5ZM46.1,146.1l-21.3-10.3h0c-.1-7.4,5.7-13.4,13-13.5,7.3-.1,13.4,5.7,13.5,13,0,4.4-2,8.2-5.2,10.7ZM131.2,96.5c-31.2,32.2-69.7-5.3-128.5-26.8V2.8h86.8c-10.3,3-20,8.5-28.3,16.5-1.3,1.2-2,2.9-2,4.7,0,1.8.7,3.5,2,4.7l8.8,8.5c2.3,2.3,6,2.5,8.6.5,6.5-5,14.7-8.1,23.6-8.2,21.8-.3,39.8,17.1,40.2,38.9.2,10.9-4.1,20.9-11.1,28.1Z"/>
  </g>
  <path d="M776,161.2c0,5.8,15.7,2.7,15.7,12.2s-5.2,8.3-10.6,8.3-10.3-2.7-11.4-8.8h5.7c.5,3.1,3.3,4.7,6,4.7s4.9-1.4,4.9-4.2c0-5.4-15.7-2-15.7-11.9s4.8-8.2,9.8-8.2,9.5,2.6,10.6,8.6h-5.8c-.4-2.9-2.9-4.4-5.2-4.4s-4,1.2-4,3.8Z"/>
  <path d="M742.2,158.1h-12.7v7h10.7v4.7h-10.7v7h12.7v4.7h-18.1v-28.2h18.1v4.7Z"/>
  <path d="M694.2,181.6h-5.4v-28.2h5.4v28.2Z"/>
  <path d="M644.6,166.6h15.4v.7c0,10-6.5,14.7-13.2,14.7s-14.1-5.1-14.1-14.4,6.9-14.5,13.9-14.5,11.3,3.3,13.4,10.6h-5.7c-1.7-3.8-4.8-5.6-7.9-5.6s-8.1,3.3-8.1,9.4,4.6,9.4,9,9.4,6.3-1.8,7.3-5.6h-9.9v-4.7Z"/>
  <path d="M576.9,167.5c0-9.6,7.1-14.5,14.2-14.5s14.2,4.8,14.2,14.5-7.1,14.4-14.2,14.4-14.2-4.8-14.2-14.4ZM582.3,167.5c0,6.3,4.4,9.4,8.8,9.4s8.8-3.1,8.8-9.4-4.4-9.4-8.8-9.4-8.8,3.1-8.8,9.4Z"/>
  <path d="M538.1,176.9h13.2v4.7h-18.6v-28.2h5.4v23.5Z"/>
  <path d="M475.5,167.5c0-9.6,7.1-14.5,14.2-14.5s14.2,4.8,14.2,14.5-7.1,14.4-14.2,14.4-14.2-4.8-14.2-14.4ZM481,167.5c0,6.3,4.4,9.4,8.8,9.4s8.8-3.1,8.8-9.4-4.4-9.4-8.8-9.4-8.8,3.1-8.8,9.4Z"/>
  <path d="M441.5,153.4h5.4v26.6c0,1-.8,1.9-1.9,1.9s-1.2-.3-1.5-.7l-13.4-17.2v17.5h-5.4v-26.6c0-1.1.9-2,2-2s1.2.3,1.6.7l13.4,16.9v-17.2Z"/>
  <path d="M389.3,153.4h5.4v28.2h-5.4v-11.7h-11.5v11.7h-5.4v-28.2h5.4v11.7h11.5v-11.7Z"/>
  <path d="M322,167.5c0,6.5,4.2,9.7,8.4,9.7s6.4-1.9,7.7-5.8h5.7c-2,7.2-7.7,10.6-13.4,10.6s-13.8-5-13.8-14.5,6.9-14.5,13.8-14.5,11.4,3.4,13.4,10.6h-5.7c-1.4-3.9-4.6-5.8-7.8-5.8s-8.3,3.3-8.3,9.8Z"/>
  <path d="M289.3,158.1h-12.7v7h10.7v4.7h-10.7v7h12.7v4.7h-18.1v-28.2h18.1v4.7Z"/>
  <path d="M223.1,153.4h20.5v4.7h-7.5v23.5h-5.4v-23.5h-7.5v-4.7Z"/>
  <path d="M679.7,137.4h-24.4V0h24.4v137.4Z"/>
  <path d="M612.7,0h24.4v88.7c0,26.8-21.9,48.7-48.7,48.7s-48.9-21.9-48.9-48.7,22.1-49.1,43.6-49.1,21.9,4.2,29.7,12.6V0ZM588.4,115.1c13.3,0,24.4-11.8,24.4-26.5s-11-26.6-24.4-26.6-24.5,11.8-24.5,26.6,11,26.5,24.5,26.5Z"/>
  <path d="M525.6,88.3v41.7c0,4-3.2,7.2-7.2,7.2s-4.2-1.1-5.5-2.9l-9.7-12.2c-7.8,9.9-19.6,15-31.6,15-21.5,0-43.6-16.2-43.6-49.1s21.9-48.7,48.9-48.7,48.7,21.7,48.7,48.9ZM501.2,88.3v-.2c0-14.7-11-26.6-24.4-26.6s-24.5,12-24.5,26.6,11,26.6,24.5,26.6,24.2-11.8,24.4-26.5Z"/>
  <path d="M391.7,52.5c7.6-8.4,18.3-12.7,29.1-12.9v22.6c-17.5,0-28,7-28,22.6v52.5h-24.4V47c0-4,3.4-7.4,7.4-7.4s4,.8,5.5,2.3l10.3,10.7Z"/>
  <path d="M279.6,64.3h73.1v3.3c0,47.4-31,69.6-62.6,69.6s-66.8-24.1-66.8-68.5S256.3,0,289.4,0s53.8,15.9,63.3,50.3h-27.2c-7.8-17.8-23-26.4-37.7-26.4s-38.6,15.5-38.6,44.8,21.8,44.4,42.5,44.4,30-8.4,34.8-26.4h-46.9v-22.4Z"/>
  <path d="M768.1,102.3c-4.4,7.9-13.2,12.1-22.1,12.1s-22.8-6.7-25.1-20.7h71.6v-2.9c-1-34.8-24.7-51.2-48.3-51.2s-48,16.9-48,48.7,25.5,49.1,50.4,49.1,35.9-9,43.7-27.8l-22.2-7.3ZM744.7,61.5c8.8,0,17.5,4.8,21.3,14.1h-43c4.2-9.3,12.9-14.1,21.7-14.1Z"/>
</svg>