<svg xmlns="http://www.w3.org/2000/svg" width="240" height="72" viewBox="0 0 240 72" role="img" aria-labelledby="title">
  <title id="title">Gradle Technologies</title>
  <rect width="240" height="72" rx="14" fill="#02303A"/>
  <path fill="#74C043" d="M36.1 45.7c-5.8 0-10.5-4.6-10.5-10.3 0-5.8 4.7-10.4 10.5-10.4 3.6 0 6.7 1.7 8.6 4.4l-4.2 3.1a5.2 5.2 0 0 0-4.4-2.2 5 5 0 0 0-5 5.1c0 3 2.2 5.2 5.2 5.2 2.3 0 4-1 4.8-2.7h-5.4v-4.6h11.1v2.2c0 6.1-4.2 10.2-10.7 10.2Z"/>
  <path fill="#fff" d="M61.7 45.3H56V25.4h8.5c4.6 0 7.5 2.6 7.5 6.5 0 2.6-1.3 4.7-3.5 5.8l4.4 7.6h-6.4l-3.7-6.8h-1.1v6.8Zm0-11.3h2.1c1.5 0 2.4-.8 2.4-2s-.9-2-2.4-2h-2.1v4Zm26.1 11.3-1.1-3.2h-7.1l-1.1 3.2h-5.8l7.3-19.9h6.5l7.3 19.9h-6Zm-6.7-7.8h4.1l-2-6.2-2.1 6.2Zm23.5 7.8h-7.8V25.4h7.8c6.2 0 10.4 4 10.4 9.9s-4.2 10-10.4 10Zm-2.1-5h1.8c3 0 4.9-1.9 4.9-5s-1.9-4.9-4.9-4.9h-1.8v9.9Zm27.8 5h-11.8V25.4h5.7v14.9h6.1v5Zm16.3 0h-12.8V25.4h12.6v5h-6.9V33h6.3v4.7h-6.3v2.7h7.1v4.9Z"/>
  <path fill="#74C043" d="M165.4 45.3h-5.6V30.4h-4.7v-5h15v5h-4.7v14.9Z"/>
  <path fill="#fff" d="M185.9 45.3h-12.8V25.4h12.6v5h-6.9V33h6.3v4.7h-6.3v2.7h7.1v4.9Zm13.3.4c-6.1 0-10.5-4.4-10.5-10.4 0-6 4.4-10.3 10.5-10.3 4.7 0 8.5 2.8 9.8 7l-5.3 1.6c-.7-2-2.4-3.2-4.5-3.2-2.9 0-4.8 2-4.8 4.9s1.9 5 4.8 5c2.1 0 3.8-1.2 4.5-3.2l5.3 1.6c-1.3 4.2-5.1 7-9.8 7Zm30.3-.4h-5.7v-7.6h-6.6v7.6h-5.7V25.4h5.7v7.3h6.6v-7.3h5.7v19.9Z"/>
</svg>
