<svg width="502" height="198" viewBox="0 0 502 198" fill="none" xmlns="http://www.w3.org/2000/svg">
<rect width="502" height="198" fill="#FAFAFA"/>
<g clip-path="url(#clip0_94_1362)">
<mask id="mask0_94_1362" style="mask-type:luminance" maskUnits="userSpaceOnUse" x="216" y="30" width="17" height="16">
<path d="M232.761 30H216.991V45.9824H232.77V30H232.761Z" fill="white"/>
</mask>
<g mask="url(#mask0_94_1362)">
<path fill-rule="evenodd" clip-rule="evenodd" d="M230.644 31.7143C229.437 30.5275 227.866 29.9648 226.313 30C226.313 30 226.313 30 226.304 30C226.252 30 226.2 30 226.148 30H216.991V46H227.849C235.157 39.2659 232.744 33.7714 230.644 31.7143ZM221.001 42.844L219.152 41.9385C219.144 41.2879 219.647 40.7604 220.281 40.7517C220.914 40.7429 221.444 41.2527 221.452 41.8945C221.452 42.2813 221.279 42.6154 221.001 42.8352V42.844ZM228.387 38.4835C225.679 41.3143 222.338 38.0176 217.234 36.1275V30.2462H224.768C223.874 30.5099 223.032 30.9934 222.312 31.6967C222.199 31.8022 222.138 31.9517 222.138 32.1099C222.138 32.2681 222.199 32.4176 222.312 32.5231L223.075 33.2703C223.275 33.4725 223.596 33.4901 223.822 33.3143C224.386 32.8747 225.098 32.6022 225.87 32.5934C227.762 32.567 229.324 34.0967 229.359 36.0132C229.376 36.9714 229.003 37.8506 228.396 38.4835H228.387Z" fill="url(#paint0_linear_94_1362)"/>
</g>
<path d="M284.351 44.1714C284.351 44.6813 285.714 44.4088 285.714 45.244C285.714 46.0791 285.262 45.9736 284.794 45.9736C284.325 45.9736 283.9 45.7363 283.804 45.2H284.299C284.342 45.4725 284.585 45.6132 284.82 45.6132C285.054 45.6132 285.245 45.4901 285.245 45.244C285.245 44.7692 283.882 45.0681 283.882 44.1978C283.882 43.3275 284.299 43.4769 284.733 43.4769C285.167 43.4769 285.557 43.7055 285.653 44.233H285.149C285.115 43.978 284.898 43.8462 284.698 43.8462C284.499 43.8462 284.351 43.9517 284.351 44.1802V44.1714Z" fill="#262626"/>
<path d="M281.417 43.8989H280.315V44.5143H281.244V44.9275H280.315V45.5429H281.417V45.956H279.846V43.4769H281.417V43.8901V43.8989Z" fill="#262626"/>
<path d="M277.251 45.9648H276.783V43.4857H277.251V45.9648Z" fill="#262626"/>
<path d="M272.946 44.6461H274.283V44.7077C274.283 45.5868 273.719 46 273.137 46C272.556 46 271.914 45.5516 271.914 44.7341C271.914 43.9165 272.512 43.4593 273.12 43.4593C273.728 43.4593 274.101 43.7494 274.283 44.3912H273.788C273.641 44.0571 273.372 43.8989 273.103 43.8989C272.834 43.8989 272.4 44.189 272.4 44.7253C272.4 45.2615 272.799 45.5516 273.181 45.5516C273.563 45.5516 273.728 45.3934 273.814 45.0593H272.955V44.6461H272.946Z" fill="#262626"/>
<path d="M267.071 44.7253C267.071 43.8813 267.687 43.4505 268.303 43.4505C268.919 43.4505 269.535 43.8725 269.535 44.7253C269.535 45.578 268.919 45.9912 268.303 45.9912C267.687 45.9912 267.071 45.5692 267.071 44.7253ZM267.539 44.7253C267.539 45.2791 267.921 45.5516 268.303 45.5516C268.685 45.5516 269.067 45.2791 269.067 44.7253C269.067 44.1714 268.685 43.8989 268.303 43.8989C267.921 43.8989 267.539 44.1714 267.539 44.7253Z" fill="#262626"/>
<path d="M263.703 45.5517H264.849V45.9648H263.234V43.4857H263.703V45.5517Z" fill="#262626"/>
<path d="M258.27 44.7253C258.27 43.8813 258.886 43.4505 259.502 43.4505C260.118 43.4505 260.735 43.8725 260.735 44.7253C260.735 45.578 260.118 45.9912 259.502 45.9912C258.886 45.9912 258.27 45.5692 258.27 44.7253ZM258.747 44.7253C258.747 45.2791 259.129 45.5516 259.511 45.5516C259.893 45.5516 260.275 45.2791 260.275 44.7253C260.275 44.1714 259.893 43.8989 259.511 43.8989C259.129 43.8989 258.747 44.1714 258.747 44.7253Z" fill="#262626"/>
<path d="M255.319 43.4857H255.788V45.8242C255.788 45.9121 255.718 45.9912 255.623 45.9912C255.527 45.9912 255.519 45.9648 255.493 45.9297L254.33 44.4176V45.956H253.861V43.6176C253.861 43.5209 253.939 43.4418 254.034 43.4418C254.13 43.4418 254.139 43.4681 254.173 43.5033L255.336 44.989V43.4769L255.319 43.4857Z" fill="#262626"/>
<path d="M250.788 43.4857H251.257V45.9648H250.788V44.9363H249.79V45.9648H249.322V43.4857H249.79V44.5143H250.788V43.4857Z" fill="#262626"/>
<path d="M244.947 44.7253C244.947 45.2967 245.312 45.578 245.676 45.578C246.041 45.578 246.232 45.411 246.345 45.0681H246.839C246.666 45.7011 246.171 46 245.676 46C245.182 46 244.479 45.5604 244.479 44.7253C244.479 43.8901 245.077 43.4505 245.676 43.4505C246.275 43.4505 246.666 43.7494 246.839 44.3824H246.345C246.223 44.0396 245.945 43.8725 245.668 43.8725C245.39 43.8725 244.947 44.1626 244.947 44.7341V44.7253Z" fill="#262626"/>
<path d="M242.109 43.8989H241.007V44.5143H241.935V44.9275H241.007V45.5429H242.109V45.956H240.538V43.4769H242.109V43.8901V43.8989Z" fill="#262626"/>
<path d="M236.363 43.4857H238.143V43.8989H237.492V45.9648H237.023V43.8989H236.372V43.4857H236.363Z" fill="#262626"/>
<path d="M275.993 42.0791H273.875V30H275.993V42.0791Z" fill="#262626"/>
<path d="M270.178 30H272.295V37.7978C272.295 40.1538 270.395 42.0791 268.069 42.0791C265.743 42.0791 263.824 40.1538 263.824 37.7978C263.824 35.4418 265.743 33.4813 267.609 33.4813C269.475 33.4813 269.509 33.8505 270.186 34.589V30H270.178ZM268.069 40.1187C269.223 40.1187 270.186 39.0813 270.186 37.789C270.186 36.4967 269.232 35.4505 268.069 35.4505C266.906 35.4505 265.942 36.4879 265.942 37.789C265.942 39.0901 266.897 40.1187 268.069 40.1187Z" fill="#262626"/>
<path d="M262.618 37.7626V41.4286C262.618 41.7802 262.34 42.0615 261.993 42.0615C261.646 42.0615 261.629 41.9648 261.516 41.8066L260.674 40.7341C259.997 41.6044 258.973 42.0528 257.931 42.0528C256.065 42.0528 254.147 40.6286 254.147 37.7363C254.147 34.844 256.048 33.4549 258.391 33.4549C260.735 33.4549 262.618 35.3626 262.618 37.7538V37.7626ZM260.5 37.7626V37.7451C260.5 36.4528 259.546 35.4066 258.383 35.4066C257.22 35.4066 256.256 36.4615 256.256 37.7451C256.256 39.0286 257.211 40.0835 258.383 40.0835C259.554 40.0835 260.483 39.0462 260.5 37.7538V37.7626Z" fill="#262626"/>
<path d="M250.997 34.6154C251.656 33.8769 252.585 33.4989 253.522 33.4813V35.4681C252.003 35.4681 251.092 36.0835 251.092 37.4549V42.0703H248.974V34.1319C248.974 33.7802 249.269 33.4813 249.617 33.4813C249.964 33.4813 249.964 33.5516 250.094 33.6835L250.988 34.6242L250.997 34.6154Z" fill="#262626"/>
<path d="M241.267 35.6527H247.612V35.9429C247.612 40.1099 244.921 42.0615 242.179 42.0615C239.436 42.0615 236.381 39.9429 236.381 36.0396C236.381 32.1363 239.245 30 242.118 30C244.991 30 246.787 31.3978 247.612 34.422H245.251C244.574 32.8571 243.255 32.1011 241.979 32.1011C240.703 32.1011 238.629 33.4637 238.629 36.0396C238.629 38.6154 240.521 39.9429 242.317 39.9429C244.114 39.9429 244.921 39.2044 245.338 37.622H241.267V35.6527Z" fill="#262626"/>
<path d="M283.665 38.9934C283.283 39.6879 282.52 40.0571 281.747 40.0571C280.975 40.0571 279.768 39.4681 279.569 38.2374H285.783V37.9824C285.696 34.9231 283.639 33.4813 281.591 33.4813C279.543 33.4813 277.425 34.967 277.425 37.7626C277.425 40.5582 279.638 42.0791 281.799 42.0791C283.96 42.0791 284.915 41.2879 285.592 39.6352L283.665 38.9934ZM281.634 35.4066C282.398 35.4066 283.153 35.8286 283.483 36.6462H279.751C280.115 35.8286 280.87 35.4066 281.634 35.4066Z" fill="#262626"/>
</g>
<path d="M82.24 110V87.28H86.336V100.624L93.344 92.912H98.4L91.712 100.016L98.624 110H94.016L89.024 102.448L86.336 105.296V110H82.24ZM100.99 110V92.912H104.83L104.99 97.648L104.638 97.584C104.894 95.9413 105.374 94.7573 106.078 94.032C106.803 93.2853 107.785 92.912 109.022 92.912H110.59V96.432H108.99C108.115 96.432 107.39 96.56 106.814 96.816C106.238 97.072 105.801 97.4773 105.502 98.032C105.225 98.5653 105.086 99.2693 105.086 100.144V110H100.99ZM117.888 110.384C116.096 110.384 114.656 109.979 113.568 109.168C112.48 108.336 111.936 107.184 111.936 105.712C111.936 104.24 112.394 103.088 113.312 102.256C114.229 101.424 115.626 100.827 117.504 100.464L123.168 99.344C123.168 98.128 122.89 97.2213 122.336 96.624C121.781 96.0053 120.96 95.696 119.872 95.696C118.89 95.696 118.112 95.9307 117.536 96.4C116.981 96.848 116.597 97.4987 116.384 98.352L112.224 98.16C112.565 96.3467 113.397 94.96 114.72 94C116.042 93.0187 117.76 92.528 119.872 92.528C122.304 92.528 124.138 93.1467 125.376 94.384C126.634 95.6 127.264 97.3493 127.264 99.632V105.84C127.264 106.288 127.338 106.597 127.488 106.768C127.658 106.939 127.904 107.024 128.224 107.024H128.767V110C128.64 110.043 128.426 110.075 128.128 110.096C127.85 110.117 127.562 110.128 127.264 110.128C126.56 110.128 125.93 110.021 125.376 109.808C124.821 109.573 124.394 109.179 124.096 108.624C123.797 108.048 123.648 107.269 123.648 106.288L124 106.544C123.829 107.291 123.456 107.963 122.88 108.56C122.325 109.136 121.621 109.584 120.768 109.904C119.914 110.224 118.954 110.384 117.888 110.384ZM118.72 107.408C119.637 107.408 120.426 107.227 121.088 106.864C121.749 106.501 122.261 106 122.624 105.36C122.986 104.72 123.168 103.963 123.168 103.088V102.128L118.752 103.024C117.834 103.216 117.173 103.504 116.768 103.888C116.384 104.251 116.192 104.731 116.192 105.328C116.192 105.989 116.405 106.501 116.832 106.864C117.28 107.227 117.909 107.408 118.72 107.408ZM131.24 110V92.912H135.336V110H131.24ZM131.176 90.64V86.992H135.432V90.64H131.176ZM145.601 110.384C144.151 110.384 142.892 110.021 141.825 109.296C140.78 108.571 139.969 107.536 139.393 106.192C138.817 104.848 138.529 103.269 138.529 101.456C138.529 99.6427 138.817 98.064 139.393 96.72C139.969 95.376 140.791 94.3413 141.857 93.616C142.924 92.8907 144.172 92.528 145.601 92.528C146.796 92.528 147.841 92.7733 148.737 93.264C149.655 93.7547 150.348 94.448 150.817 95.344V87.28H154.913V110H151.009L150.913 107.472C150.444 108.389 149.74 109.104 148.801 109.616C147.863 110.128 146.796 110.384 145.601 110.384ZM146.849 107.056C147.703 107.056 148.417 106.843 148.993 106.416C149.591 105.989 150.039 105.36 150.337 104.528C150.657 103.675 150.817 102.651 150.817 101.456C150.817 100.24 150.657 99.216 150.337 98.384C150.039 97.552 149.591 96.9227 148.993 96.496C148.417 96.0693 147.703 95.856 146.849 95.856C145.612 95.856 144.62 96.3573 143.873 97.36C143.148 98.3413 142.785 99.7067 142.785 101.456C142.785 103.163 143.148 104.528 143.873 105.552C144.62 106.555 145.612 107.056 146.849 107.056ZM163.274 110C162.036 110 161.044 109.68 160.298 109.04C159.551 108.4 159.178 107.376 159.178 105.968V87.28H163.274V105.552C163.274 105.979 163.38 106.299 163.594 106.512C163.828 106.725 164.148 106.832 164.554 106.832H165.802V110H163.274ZM175.82 110.384C174.113 110.384 172.63 110.021 171.372 109.296C170.113 108.549 169.142 107.504 168.46 106.16C167.777 104.816 167.436 103.248 167.436 101.456C167.436 99.664 167.777 98.1067 168.46 96.784C169.142 95.44 170.102 94.3947 171.34 93.648C172.598 92.9013 174.06 92.528 175.724 92.528C177.345 92.528 178.764 92.8907 179.98 93.616C181.217 94.3413 182.166 95.3867 182.828 96.752C183.489 98.1173 183.819 99.76 183.819 101.68V102.608H171.692C171.777 104.101 172.182 105.232 172.908 106C173.654 106.747 174.636 107.12 175.852 107.12C176.769 107.12 177.526 106.917 178.124 106.512C178.742 106.085 179.169 105.499 179.404 104.752L183.596 105.008C183.126 106.672 182.198 107.984 180.812 108.944C179.446 109.904 177.782 110.384 175.82 110.384ZM171.692 99.856H179.596C179.51 98.4693 179.116 97.4453 178.412 96.784C177.708 96.1013 176.812 95.76 175.724 95.76C174.636 95.76 173.729 96.112 173.004 96.816C172.3 97.52 171.862 98.5333 171.692 99.856ZM195.216 110V87.28H202.768C206.395 87.28 209.179 88.272 211.12 90.256C213.083 92.2187 214.064 95.024 214.064 98.672C214.064 102.299 213.104 105.093 211.184 107.056C209.264 109.019 206.523 110 202.96 110H195.216ZM199.376 106.384H202.768C205.136 106.384 206.896 105.744 208.048 104.464C209.2 103.184 209.776 101.253 209.776 98.672C209.776 96.048 209.2 94.096 208.048 92.816C206.896 91.536 205.136 90.896 202.768 90.896H199.376V106.384ZM225.351 110.384C223.644 110.384 222.161 110.021 220.903 109.296C219.644 108.549 218.673 107.504 217.991 106.16C217.308 104.816 216.967 103.248 216.967 101.456C216.967 99.664 217.308 98.1067 217.991 96.784C218.673 95.44 219.633 94.3947 220.871 93.648C222.129 92.9013 223.591 92.528 225.255 92.528C226.876 92.528 228.295 92.8907 229.511 93.616C230.748 94.3413 231.697 95.3867 232.359 96.752C233.02 98.1173 233.351 99.76 233.351 101.68V102.608H221.223C221.308 104.101 221.713 105.232 222.439 106C223.185 106.747 224.167 107.12 225.383 107.12C226.3 107.12 227.057 106.917 227.655 106.512C228.273 106.085 228.7 105.499 228.935 104.752L233.127 105.008C232.657 106.672 231.729 107.984 230.343 108.944C228.977 109.904 227.313 110.384 225.351 110.384ZM221.223 99.856H229.127C229.041 98.4693 228.647 97.4453 227.943 96.784C227.239 96.1013 226.343 95.76 225.255 95.76C224.167 95.76 223.26 96.112 222.535 96.816C221.831 97.52 221.393 98.5333 221.223 99.856ZM243.497 110.384C241.811 110.384 240.393 110.139 239.241 109.648C238.11 109.157 237.235 108.475 236.617 107.6C235.998 106.725 235.646 105.733 235.561 104.624L239.753 104.432C239.902 105.328 240.275 106.021 240.873 106.512C241.47 107.003 242.355 107.248 243.529 107.248C244.489 107.248 245.235 107.099 245.769 106.8C246.323 106.48 246.601 105.989 246.601 105.328C246.601 104.944 246.505 104.624 246.313 104.368C246.121 104.112 245.758 103.888 245.225 103.696C244.691 103.504 243.902 103.312 242.857 103.12C241.107 102.821 239.731 102.459 238.729 102.032C237.726 101.584 237.011 101.029 236.585 100.368C236.179 99.7067 235.977 98.8853 235.977 97.904C235.977 96.304 236.585 95.0133 237.801 94.032C239.038 93.0293 240.841 92.528 243.209 92.528C244.745 92.528 246.035 92.784 247.081 93.296C248.126 93.7867 248.937 94.4693 249.513 95.344C250.11 96.1973 250.483 97.1787 250.633 98.288L246.505 98.48C246.398 97.904 246.206 97.4027 245.929 96.976C245.651 96.5493 245.278 96.2293 244.809 96.016C244.339 95.7813 243.785 95.664 243.145 95.664C242.185 95.664 241.459 95.856 240.969 96.24C240.478 96.624 240.233 97.136 240.233 97.776C240.233 98.224 240.339 98.5973 240.553 98.896C240.787 99.1947 241.161 99.44 241.673 99.632C242.185 99.8027 242.867 99.9627 243.72 100.112C245.513 100.389 246.921 100.752 247.945 101.2C248.99 101.627 249.726 102.181 250.153 102.864C250.601 103.525 250.825 104.325 250.825 105.264C250.825 106.352 250.515 107.28 249.897 108.048C249.299 108.816 248.446 109.403 247.337 109.808C246.249 110.192 244.969 110.384 243.497 110.384ZM254.021 110V92.912H258.117V110H254.021ZM253.957 90.64V86.992H258.213V90.64H253.957ZM269.599 115.184C268.105 115.184 266.825 114.981 265.759 114.576C264.692 114.171 263.828 113.595 263.167 112.848C262.527 112.123 262.079 111.28 261.823 110.32L266.047 110.032C266.26 110.672 266.623 111.173 267.135 111.536C267.668 111.899 268.489 112.08 269.599 112.08C270.857 112.08 271.828 111.792 272.511 111.216C273.193 110.661 273.535 109.787 273.535 108.592V106.416C273.129 107.248 272.479 107.92 271.583 108.432C270.687 108.923 269.684 109.168 268.575 109.168C267.167 109.168 265.908 108.827 264.799 108.144C263.711 107.44 262.857 106.469 262.239 105.232C261.62 103.973 261.311 102.523 261.311 100.88C261.311 99.2373 261.609 97.7973 262.207 96.56C262.825 95.3013 263.679 94.32 264.766 93.616C265.855 92.8907 267.103 92.528 268.51 92.528C269.748 92.528 270.815 92.8053 271.711 93.36C272.607 93.9147 273.257 94.6507 273.663 95.568V92.912H277.663V108.496C277.663 109.947 277.321 111.173 276.639 112.176C275.977 113.179 275.039 113.925 273.823 114.416C272.628 114.928 271.22 115.184 269.599 115.184ZM269.535 105.968C270.751 105.968 271.721 105.52 272.447 104.624C273.172 103.707 273.545 102.448 273.567 100.848C273.588 99.7813 273.428 98.8747 273.087 98.128C272.767 97.36 272.297 96.7733 271.679 96.368C271.081 95.9413 270.367 95.728 269.535 95.728C268.276 95.728 267.295 96.1973 266.591 97.136C265.908 98.0533 265.567 99.2907 265.567 100.848C265.567 102.405 265.919 103.653 266.623 104.592C267.348 105.509 268.319 105.968 269.535 105.968ZM282.146 110V92.912H285.858L286.018 97.712L285.538 97.52C285.709 96.3253 286.061 95.3653 286.594 94.64C287.128 93.9147 287.778 93.3813 288.546 93.04C289.314 92.6987 290.157 92.528 291.074 92.528C292.333 92.528 293.389 92.8053 294.242 93.36C295.117 93.9147 295.778 94.6827 296.226 95.664C296.674 96.624 296.898 97.744 296.898 99.024V110H292.802V100.336C292.802 99.376 292.706 98.5653 292.514 97.904C292.322 97.2427 292.002 96.7413 291.554 96.4C291.128 96.0373 290.552 95.856 289.826 95.856C288.738 95.856 287.864 96.24 287.202 97.008C286.562 97.776 286.242 98.8853 286.242 100.336V110H282.146ZM317.824 110.512C315.946 110.512 314.325 110.181 312.96 109.52C311.594 108.859 310.517 107.941 309.728 106.768C308.96 105.573 308.512 104.187 308.384 102.608L312.608 102.352C312.736 103.333 313.013 104.165 313.44 104.848C313.888 105.531 314.474 106.053 315.2 106.416C315.946 106.757 316.842 106.928 317.888 106.928C318.784 106.928 319.541 106.821 320.16 106.608C320.8 106.373 321.28 106.043 321.6 105.616C321.941 105.168 322.112 104.624 322.112 103.984C322.112 103.408 321.973 102.896 321.696 102.448C321.418 101.979 320.885 101.563 320.096 101.2C319.306 100.816 318.133 100.443 316.576 100.08C314.698 99.6533 313.194 99.1733 312.064 98.64C310.933 98.0853 310.112 97.4027 309.6 96.592C309.088 95.76 308.832 94.7253 308.832 93.488C308.832 92.1653 309.162 91.0027 309.824 90C310.485 88.976 311.424 88.1867 312.64 87.632C313.856 87.056 315.317 86.768 317.024 86.768C318.837 86.768 320.373 87.0987 321.632 87.76C322.89 88.4 323.882 89.2853 324.608 90.416C325.333 91.5467 325.781 92.848 325.952 94.32L321.76 94.512C321.653 93.68 321.397 92.9547 320.992 92.336C320.608 91.7173 320.074 91.2373 319.392 90.896C318.73 90.5333 317.92 90.352 316.96 90.352C315.765 90.352 314.816 90.6293 314.112 91.184C313.429 91.7173 313.088 92.432 313.088 93.328C313.088 93.9467 313.226 94.4587 313.504 94.864C313.802 95.2693 314.325 95.6213 315.072 95.92C315.818 96.1973 316.864 96.496 318.208 96.816C320.234 97.2427 321.845 97.7867 323.04 98.448C324.234 99.1093 325.088 99.8773 325.6 100.752C326.112 101.627 326.368 102.629 326.368 103.76C326.368 105.147 326.016 106.352 325.312 107.376C324.608 108.379 323.616 109.157 322.336 109.712C321.056 110.245 319.552 110.512 317.824 110.512ZM330.925 114.8V111.632H333.101C333.655 111.632 334.061 111.547 334.317 111.376C334.594 111.205 334.807 110.917 334.957 110.512L335.437 109.328H334.253L328.141 92.912H332.397L336.685 105.488L340.781 92.912H345.037L338.349 111.792C337.965 112.859 337.421 113.627 336.717 114.096C336.034 114.565 335.074 114.8 333.837 114.8H330.925ZM353.997 110.384C352.311 110.384 350.893 110.139 349.741 109.648C348.61 109.157 347.735 108.475 347.117 107.6C346.498 106.725 346.146 105.733 346.061 104.624L350.253 104.432C350.402 105.328 350.775 106.021 351.373 106.512C351.97 107.003 352.855 107.248 354.029 107.248C354.989 107.248 355.735 107.099 356.269 106.8C356.823 106.48 357.101 105.989 357.101 105.328C357.101 104.944 357.005 104.624 356.813 104.368C356.621 104.112 356.258 103.888 355.725 103.696C355.191 103.504 354.402 103.312 353.357 103.12C351.607 102.821 350.231 102.459 349.229 102.032C348.226 101.584 347.511 101.029 347.085 100.368C346.679 99.7067 346.477 98.8853 346.477 97.904C346.477 96.304 347.085 95.0133 348.301 94.032C349.538 93.0293 351.341 92.528 353.709 92.528C355.245 92.528 356.535 92.784 357.581 93.296C358.626 93.7867 359.437 94.4693 360.013 95.344C360.61 96.1973 360.983 97.1787 361.133 98.288L357.005 98.48C356.898 97.904 356.706 97.4027 356.429 96.976C356.151 96.5493 355.778 96.2293 355.309 96.016C354.839 95.7813 354.285 95.664 353.645 95.664C352.685 95.664 351.959 95.856 351.469 96.24C350.978 96.624 350.733 97.136 350.733 97.776C350.733 98.224 350.839 98.5973 351.053 98.896C351.287 99.1947 351.661 99.44 352.173 99.632C352.685 99.8027 353.367 99.9627 354.22 100.112C356.013 100.389 357.421 100.752 358.445 101.2C359.49 101.627 360.226 102.181 360.653 102.864C361.101 103.525 361.325 104.325 361.325 105.264C361.325 106.352 361.015 107.28 360.397 108.048C359.799 108.816 358.946 109.403 357.837 109.808C356.749 110.192 355.469 110.384 353.997 110.384ZM370.776 110C369.069 110 367.81 109.605 367 108.816C366.21 108.027 365.816 106.789 365.816 105.104V88.912H369.911V104.72C369.911 105.509 370.082 106.064 370.424 106.384C370.765 106.683 371.298 106.832 372.024 106.832H374.424V110H370.776ZM363.128 96.08V92.912H374.424V96.08H363.128ZM384.538 110.384C382.832 110.384 381.349 110.021 380.09 109.296C378.832 108.549 377.861 107.504 377.178 106.16C376.496 104.816 376.154 103.248 376.154 101.456C376.154 99.664 376.496 98.1067 377.178 96.784C377.861 95.44 378.821 94.3947 380.058 93.648C381.317 92.9013 382.778 92.528 384.442 92.528C386.064 92.528 387.482 92.8907 388.698 93.616C389.936 94.3413 390.885 95.3867 391.546 96.752C392.208 98.1173 392.538 99.76 392.538 101.68V102.608H380.41C380.496 104.101 380.901 105.232 381.626 106C382.373 106.747 383.354 107.12 384.57 107.12C385.488 107.12 386.245 106.917 386.842 106.512C387.461 106.085 387.888 105.499 388.122 104.752L392.314 105.008C391.845 106.672 390.917 107.984 389.53 108.944C388.165 109.904 386.501 110.384 384.538 110.384ZM380.41 99.856H388.314C388.229 98.4693 387.834 97.4453 387.13 96.784C386.426 96.1013 385.53 95.76 384.442 95.76C383.354 95.76 382.448 96.112 381.722 96.816C381.018 97.52 380.581 98.5333 380.41 99.856ZM395.74 110V92.912H399.452L399.58 97.104L399.196 96.912C399.388 95.9947 399.719 95.216 400.188 94.576C400.679 93.9147 401.265 93.4133 401.948 93.072C402.652 92.7093 403.42 92.528 404.252 92.528C405.703 92.528 406.876 92.944 407.772 93.776C408.668 94.5867 409.233 95.7067 409.468 97.136H408.924C409.116 96.1333 409.447 95.3013 409.916 94.64C410.385 93.9573 410.972 93.4347 411.676 93.072C412.401 92.7093 413.212 92.528 414.108 92.528C415.281 92.528 416.295 92.784 417.148 93.296C418.001 93.7867 418.652 94.512 419.1 95.472C419.569 96.432 419.804 97.616 419.804 99.024V110H415.708V100.08C415.708 98.672 415.463 97.616 414.972 96.912C414.503 96.208 413.777 95.856 412.796 95.856C412.135 95.856 411.569 96.0267 411.1 96.368C410.631 96.7093 410.268 97.2107 410.012 97.872C409.777 98.512 409.66 99.2907 409.66 100.208V110H405.852V100.208C405.852 98.8 405.639 97.7227 405.212 96.976C404.785 96.2293 404.049 95.856 403.004 95.856C402.343 95.856 401.777 96.0267 401.308 96.368C400.86 96.7093 400.497 97.2107 400.22 97.872C399.964 98.512 399.836 99.2907 399.836 100.208V110H395.74Z" fill="#737373"/>
<defs>
<linearGradient id="paint0_linear_94_1362" x1="213.65" y1="23.6527" x2="235.994" y2="55.9574" gradientUnits="userSpaceOnUse">
<stop stop-color="#209BC4"/>
<stop offset="1" stop-color="#4DC9C0"/>
</linearGradient>
<clipPath id="clip0_94_1362">
<rect width="69" height="16" fill="white" transform="translate(217 30)"/>
</clipPath>
</defs>
</svg>
